{
  "accessors": [
    {
      "bufferView": 3,
      "componentType": 5126,
      "count": 89,
      "max": [
        8.959375463746255e-08,
        4.539272308349609,
        4.949752330780029
      ],
      "min": [
        8.959371911032576e-08,
        0.2033272534608841,
        -29.315366744995117
      ],
      "type": "VEC3"
    },
    {
      "bufferView": 3,
      "byteOffset": 1068,
      "componentType": 5126,
      "count": 89,
      "max": [
        1.0,
        2.0226464918910152e-15,
        -1.2254887503951794e-15
      ],
      "min": [
        1.0,
        2.0226464918910152e-15,
        -1.2254887503951794e-15
      ],
      "type": "VEC3"
    },
    {
      "bufferView": 2,
      "componentType": 5126,
      "count": 89,
      "max": [
        1.002959966659546,
        0.9941859841346741
      ],
      "min": [
        0.003478999948129058,
        0.944366991519928
      ],
      "type": "VEC2"
    },
    {
      "bufferView": 2,
      "byteOffset": 712,
      "componentType": 5126,
      "count": 89,
      "max": [
        0.0,
        1.0
      ],
      "min": [
        0.0,
        1.0
      ],
      "type": "VEC2"
    },
    {
      "bufferView": 1,
      "componentType": 5125,
      "count": 249,
      "type": "SCALAR"
    },
    {
      "bufferView": 3,
      "byteOffset": 2136,
      "componentType": 5126,
      "count": 3299,
      "max": [
        4.665520191192627,
        3.916712522506714,
        7.383852481842041
      ],
      "min": [
        -4.431159973144531,
        -0.18972840905189514,
        -29.31292724609375
      ],
      "type": "VEC3"
    },
    {
      "bufferView": 3,
      "byteOffset": 41724,
      "componentType": 5126,
      "count": 3299,
      "max": [
        0.9992479085922241,
        1.0,
        1.0
      ],
      "min": [
        -0.9992507696151733,
        -1.0,
        -0.9999651908874512
      ],
      "type": "VEC3"
    },
    {
      "bufferView": 2,
      "byteOffset": 1424,
      "componentType": 5126,
      "count": 3299,
      "max": [
        0.9987030029296875,
        0.8947749733924866
      ],
      "min": [
        0.0009769999887794256,
        0.001372992992401123
      ],
      "type": "VEC2"
    },
    {
      "bufferView": 2,
      "byteOffset": 27816,
      "componentType": 5126,
      "count": 3299,
      "max": [
        1.0,
        0.0
      ],
      "min": [
        1.0,
        0.0
      ],
      "type": "VEC2"
    },
    {
      "bufferView": 1,
      "byteOffset": 996,
      "componentType": 5125,
      "count": 16152,
      "type": "SCALAR"
    },
    {
      "bufferView": 3,
      "byteOffset": 81312,
      "componentType": 5126,
      "count": 122,
      "max": [
        0.8374001383781433,
        3.6920928955078125,
        6.216853141784668
      ],
      "min": [
        -0.837399959564209,
        3.1330130100250244,
        5.677292823791504
      ],
      "type": "VEC3"
    },
    {
      "bufferView": 3,
      "byteOffset": 82776,
      "componentType": 5126,
      "count": 122,
      "max": [
        0.9982714653015137,
        0.9101554751396179,
        0.9782910346984863
      ],
      "min": [
        -0.9982768893241882,
        -0.911133348941803,
        -0.7806001901626587
      ],
      "type": "VEC3"
    },
    {
      "bufferView": 2,
      "byteOffset": 54208,
      "componentType": 5126,
      "count": 122,
      "max": [
        0.3784179985523224,
        0.2330780029296875
      ],
      "min": [
        0.30098000168800354,
        0.15566998720169067
      ],
      "type": "VEC2"
    },
    {
      "bufferView": 2,
      "byteOffset": 55184,
      "componentType": 5126,
      "count": 122,
      "max": [
        1.0,
        0.0
      ],
      "min": [
        1.0,
        0.0
      ],
      "type": "VEC2"
    },
    {
      "bufferView": 1,
      "byteOffset": 65604,
      "componentType": 5125,
      "count": 648,
      "type": "SCALAR"
    },
    {
      "bufferView": 5,
      "componentType": 5126,
      "count": 63,
      "max": [
        1.0,
        0.9684470891952515,
        1.000000238418579,
        0.0,
        0.9999998807907104,
        1.0,
        0.9539694786071777,
        0.0,
        0.9462647438049316,
        0.999660849571228,
        1.0,
        0.0,
        4.807650566101074,
        2.857562780380249,
        5.212833881378174,
        1.0
      ],
      "min": [
        -0.4160958230495453,
        -0.9684458374977112,
        -1.000000238418579,
        0.0,
        -0.9999998807907104,
        -0.8228738307952881,
        -0.8203654885292053,
        0.0,
        -0.9462652802467346,
        -1.0000007152557373,
        -0.9625279903411865,
        0.0,
        -5.002346038818359,
        -27.92268943786621,
        -4.215818405151367,
        1.0
      ],
      "type": "MAT4"
    },
    {
      "bufferView": 0,
      "componentType": 5123,
      "count": 89,
      "type": "VEC4"
    },
    {
      "bufferView": 4,
      "componentType": 5126,
      "count": 89,
      "max": [
        1.0,
        0.43979063630104065,
        0.29178446531295776,
        0.1630225032567978
      ],
      "min": [
        0.31057697534561157,
        0.0,
        0.0,
        0.0
      ],
      "type": "VEC4"
    },
    {
      "bufferView": 0,
      "byteOffset": 712,
      "componentType": 5123,
      "count": 3299,
      "type": "VEC4"
    },
    {
      "bufferView": 4,
      "byteOffset": 1424,
      "componentType": 5126,
      "count": 3299,
      "max": [
        1.0,
        0.49862754344940186,
        0.31239262223243713,
        0.236957386136055
      ],
      "min": [
        0.26811060309410095,
        0.0,
        0.0,
        0.0
      ],
      "type": "VEC4"
    },
    {
      "bufferView": 0,
      "byteOffset": 27104,
      "componentType": 5123,
      "count": 122,
      "type": "VEC4"
    },
    {
      "bufferView": 4,
      "byteOffset": 54208,
      "componentType": 5126,
      "count": 122,
      "max": [
        1.0,
        0.08172811567783356,
        0.03765513002872467,
        0.0
      ],
      "min": [
        0.898087203502655,
        0.0,
        0.0,
        0.0
      ],
      "type": "VEC4"
    },
    {
      "bufferView": 6,
      "componentType": 5126,
      "count": 501,
      "max": [
        20.83333396911621
      ],
      "min": [
        0.0
      ],
      "type": "SCALAR"
    },
    {
      "bufferView": 7,
      "componentType": 5126,
      "count": 501,
      "max": [
        -9.009125392367423e-07,
        1.5612565279006958,
        -2.93041729927063
      ],
      "min": [
        -9.009125392367423e-07,
        1.2628806829452515,
        -2.93041729927063
      ],
      "type": "VEC3"
    },
    {
      "bufferView": 6,
      "byteOffset": 2004,
      "componentType": 5126,
      "count": 501,
      "max": [
        20.83333396911621
      ],
      "min": [
        0.0
      ],
      "type": "SCALAR"
    },
    {
      "bufferView": 8,
      "componentType": 5126,
      "count": 501,
      "max": [
        -0.5154726505279541,
        -0.3983398973941803,
        0.5976628661155701,
        0.44659191370010376
      ],
      "min": [
        -0.6683900356292725,
        -0.4241250455379486,
        0.44778168201446533,
        0.4136367440223694
      ],
      "type": "VEC4"
    },
    {
      "bufferView": 6,
      "byteOffset": 4008,
      "componentType": 5126,
      "count": 501,
      "max": [
        20.83333396911621
      ],
      "min": [
        0.0
      ],
      "type": "SCALAR"
    },
    {
      "bufferView": 8,
      "byteOffset": 8016,
      "componentType": 5126,
      "count": 501,
      "max": [
        0.09876436740159988,
        0.9951462745666504,
        0.0014959764666855335,
        0.00022061355412006378
      ],
      "min": [
        -0.09873243421316147,
        -0.9951500296592712,
        -0.0008989598136395216,
        6.780723538213351e-08
      ],
      "type": "VEC4"
    },
    {
      "bufferView": 6,
      "byteOffset": 6012,
      "componentType": 5126,
      "count": 501,
      "max": [
        20.83333396911621
      ],
      "min": [
        0.0
      ],
      "type": "SCALAR"
    },
    {
      "bufferView": 8,
      "byteOffset": 16032,
      "componentType": 5126,
      "count": 501,
      "max": [
        0.005598651710897684,
        0.0003111473342869431,
        0.05691184103488922,
        0.9984918832778931
      ],
      "min": [
        -0.0067924982868134975,
        -0.0003775206860154867,
        0.05484064668416977,
        0.9983776211738586
      ],
      "type": "VEC4"
    },
    {
      "bufferView": 6,
      "byteOffset": 8016,
      "componentType": 5126,
      "count": 501,
      "max": [
        20.83333396911621
      ],
      "min": [
        0.0
      ],
      "type": "SCALAR"
    },
    {
      "bufferView": 8,
      "byteOffset": 24048,
      "componentType": 5126,
      "count": 501,
      "max": [
        0.018471140414476395,
        9.564491483615711e-05,
        0.009743707254529,
        0.9999955892562866
      ],
      "min": [
        -0.022369785234332085,
        -0.0001221807033289224,
        0.0028626578859984875,
        0.9997277855873108
      ],
      "type": "VEC4"
    },
    {
      "bufferView": 6,
      "byteOffset": 10020,
      "componentType": 5126,
      "count": 1,
      "max": [
        0.0
      ],
      "min": [
        0.0
      ],
      "type": "SCALAR"
    },
    {
      "bufferView": 7,
      "byteOffset": 6012,
      "componentType": 5126,
      "count": 1,
      "max": [
        0.9999977946281433,
        1.0000003576278687,
        0.9999977946281433
      ],
      "min": [
        0.9999977946281433,
        1.0000003576278687,
        0.9999977946281433
      ],
      "type": "VEC3"
    },
    {
      "bufferView": 6,
      "byteOffset": 10024,
      "componentType": 5126,
      "count": 501,
      "max": [
        20.83333396911621
      ],
      "min": [
        0.0
      ],
      "type": "SCALAR"
    },
    {
      "bufferView": 8,
      "byteOffset": 32064,
      "componentType": 5126,
      "count": 501,
      "max": [
        0.02829079143702984,
        0.9996491074562073,
        0.016266433522105217,
        0.0005232775583863258
      ],
      "min": [
        -0.02841123938560486,
        -0.9997155070304871,
        -0.0046456907875835896,
        1.125005837820936e-06
      ],
      "type": "VEC4"
    },
    {
      "bufferView": 6,
      "byteOffset": 12028,
      "componentType": 5126,
      "count": 1,
      "max": [
        0.0
      ],
      "min": [
        0.0
      ],
      "type": "SCALAR"
    },
    {
      "bufferView": 7,
      "byteOffset": 6024,
      "componentType": 5126,
      "count": 1,
      "max": [
        0.9999958872795105,
        1.0,
        0.9999955296516418
      ],
      "min": [
        0.9999958872795105,
        1.0,
        0.9999955296516418
      ],
      "type": "VEC3"
    },
    {
      "bufferView": 6,
      "byteOffset": 12032,
      "componentType": 5126,
      "count": 501,
      "max": [
        20.83333396911621
      ],
      "min": [
        0.0
      ],
      "type": "SCALAR"
    },
    {
      "bufferView": 8,
      "byteOffset": 40080,
      "componentType": 5126,
      "count": 501,
      "max": [
        0.040803682059049606,
        0.0006551265250891447,
        -0.014642959460616112,
        0.9998854398727417
      ],
      "min": [
        -0.0338430181145668,
        -0.00079223548527807,
        -0.02726736105978489,
        0.998953104019165
      ],
      "type": "VEC4"
    },
    {
      "bufferView": 6,
      "byteOffset": 14036,
      "componentType": 5126,
      "count": 1,
      "max": [
        0.0
      ],
      "min": [
        0.0
      ],
      "type": "SCALAR"
    },
    {
      "bufferView": 7,
      "byteOffset": 6036,
      "componentType": 5126,
      "count": 1,
      "max": [
        0.9999684691429138,
        0.9999998211860657,
        0.9999686479568481
      ],
      "min": [
        0.9999684691429138,
        0.9999998211860657,
        0.9999686479568481
      ],
      "type": "VEC3"
    },
    {
      "bufferView": 6,
      "byteOffset": 14040,
      "componentType": 5126,
      "count": 501,
      "max": [
        20.83333396911621
      ],
      "min": [
        0.0
      ],
      "type": "SCALAR"
    },
    {
      "bufferView": 8,
      "byteOffset": 48096,
      "componentType": 5126,
      "count": 501,
      "max": [
        0.00435634097084403,
        0.9999937415122986,
        0.013678514398634434,
        0.0011762038338929415
      ],
      "min": [
        -0.004538801498711109,
        -0.9999993443489075,
        -0.016516555100679398,
        2.9295287617969734e-07
      ],
      "type": "VEC4"
    },
    {
      "bufferView": 6,
      "byteOffset": 16044,
      "componentType": 5126,
      "count": 1,
      "max": [
        0.0
      ],
      "min": [
        0.0
      ],
      "type": "SCALAR"
    },
    {
      "bufferView": 7,
      "byteOffset": 6048,
      "componentType": 5126,
      "count": 1,
      "max": [
        0.9999781250953674,
        0.9999998807907104,
        0.9999784231185913
      ],
      "min": [
        0.9999781250953674,
        0.9999998807907104,
        0.9999784231185913
      ],
      "type": "VEC3"
    },
    {
      "bufferView": 6,
      "byteOffset": 16048,
      "componentType": 5126,
      "count": 501,
      "max": [
        20.83333396911621
      ],
      "min": [
        0.0
      ],
      "type": "SCALAR"
    },
    {
      "bufferView": 8,
      "byteOffset": 56112,
      "componentType": 5126,
      "count": 501,
      "max": [
        0.02530451864004135,
        0.0005491168703883886,
        -0.012107877060770988,
        0.9998916983604431
      ],
      "min": [
        -0.03044535405933857,
        -0.0004565480339806527,
        -0.022005945444107056,
        0.99937903881073
      ],
      "type": "VEC4"
    },
    {
      "bufferView": 6,
      "byteOffset": 18052,
      "componentType": 5126,
      "count": 501,
      "max": [
        20.83333396911621
      ],
      "min": [
        0.0
      ],
      "type": "SCALAR"
    },
    {
      "bufferView": 8,
      "byteOffset": 64128,
      "componentType": 5126,
      "count": 501,
      "max": [
        0.03991413861513138,
        5.674359044860466e-07,
        0.009491519071161747,
        1.0
      ],
      "min": [
        -0.047869253903627396,
        -2.1277626728988253e-05,
        -0.006815255619585514,
        0.9988536238670349
      ],
      "type": "VEC4"
    },
    {
      "bufferView": 6,
      "byteOffset": 20056,
      "componentType": 5126,
      "count": 501,
      "max": [
        20.83333396911621
      ],
      "min": [
        0.0
      ],
      "type": "SCALAR"
    },
    {
      "bufferView": 8,
      "byteOffset": 72144,
      "componentType": 5126,
      "count": 501,
      "max": [
        0.04108913242816925,
        0.0010266422759741545,
        0.034727223217487335,
        0.9998093843460083
      ],
      "min": [
        -0.04916759207844734,
        -0.0012283929390832782,
        0.01703776605427265,
        0.998502790927887
      ],
      "type": "VEC4"
    },
    {
      "bufferView": 6,
      "byteOffset": 22060,
      "componentType": 5126,
      "count": 1,
      "max": [
        0.0
      ],
      "min": [
        0.0
      ],
      "type": "SCALAR"
    },
    {
      "bufferView": 7,
      "byteOffset": 6060,
      "componentType": 5126,
      "count": 1,
      "max": [
        -2.2612648820086179e-07,
        1.614137887954712,
        -4.0723898564465344e-07
      ],
      "min": [
        -2.2612648820086179e-07,
        1.614137887954712,
        -4.0723898564465344e-07
      ],
      "type": "VEC3"
    },
    {
      "bufferView": 6,
      "byteOffset": 22064,
      "componentType": 5126,
      "count": 501,
      "max": [
        20.83333396911621
      ],
      "min": [
        0.0
      ],
      "type": "SCALAR"
    },
    {
      "bufferView": 8,
      "byteOffset": 80160,
      "componentType": 5126,
      "count": 501,
      "max": [
        0.058265939354896545,
        0.0007566901040263474,
        0.027088508009910583,
        0.99998539686203
      ],
      "min": [
        -0.0696973204612732,
        -0.0009045922197401524,
        0.0005772783188149333,
        0.9975057244300842
      ],
      "type": "VEC4"
    },
    {
      "bufferView": 6,
      "byteOffset": 24068,
      "componentType": 5126,
      "count": 1,
      "max": [
        0.0
      ],
      "min": [
        0.0
      ],
      "type": "SCALAR"
    },
    {
      "bufferView": 7,
      "byteOffset": 6072,
      "componentType": 5126,
      "count": 1,
      "max": [
        8.092104764045871e-08,
        1.7229584455490112,
        4.575126055783585e-08
      ],
      "min": [
        8.092104764045871e-08,
        1.7229584455490112,
        4.575126055783585e-08
      ],
      "type": "VEC3"
    },
    {
      "bufferView": 6,
      "byteOffset": 24072,
      "componentType": 5126,
      "count": 1,
      "max": [
        0.0
      ],
      "min": [
        0.0
      ],
      "type": "SCALAR"
    },
    {
      "bufferView": 7,
      "byteOffset": 6084,
      "componentType": 5126,
      "count": 1,
      "max": [
        1.6315591722104728e-07,
        1.902506709098816,
        7.357451892175959e-08
      ],
      "min": [
        1.6315591722104728e-07,
        1.902506709098816,
        7.357451892175959e-08
      ],
      "type": "VEC3"
    },
    {
      "bufferView": 6,
      "byteOffset": 24076,
      "componentType": 5126,
      "count": 501,
      "max": [
        20.83333396911621
      ],
      "min": [
        0.0
      ],
      "type": "SCALAR"
    },
    {
      "bufferView": 8,
      "byteOffset": 88176,
      "componentType": 5126,
      "count": 501,
      "max": [
        0.7670362591743469,
        0.6255088448524475,
        0.22457073628902435,
        0.181593120098114
      ],
      "min": [
        0.7247969508171082,
        0.5868499875068665,
        0.19428503513336182,
        0.17017552256584167
      ],
      "type": "VEC4"
    },
    {
      "bufferView": 6,
      "byteOffset": 26080,
      "componentType": 5126,
      "count": 501,
      "max": [
        20.83333396911621
      ],
      "min": [
        0.0
      ],
      "type": "SCALAR"
    },
    {
      "bufferView": 8,
      "byteOffset": 96192,
      "componentType": 5126,
      "count": 501,
      "max": [
        0.3734283745288849,
        0.3915329575538635,
        0.6619426012039185,
        0.5816651582717896
      ],
      "min": [
        0.32188114523887634,
        0.3711072504520416,
        0.6365312933921814,
        0.533402681350708
      ],
      "type": "VEC4"
    },
    {
      "bufferView": 6,
      "byteOffset": 28084,
      "componentType": 5126,
      "count": 501,
      "max": [
        20.83333396911621
      ],
      "min": [
        0.0
      ],
      "type": "SCALAR"
    },
    {
      "bufferView": 8,
      "byteOffset": 104208,
      "componentType": 5126,
      "count": 501,
      "max": [
        0.7637659311294556,
        0.6599653959274292,
        0.04923879727721214,
        0.1549067348241806
      ],
      "min": [
        0.7343950271606445,
        0.624692976474762,
        0.03897769749164581,
        0.15175938606262207
      ],
      "type": "VEC4"
    },
    {
      "bufferView": 6,
      "byteOffset": 30088,
      "componentType": 5126,
      "count": 501,
      "max": [
        20.83333396911621
      ],
      "min": [
        0.0
      ],
      "type": "SCALAR"
    },
    {
      "bufferView": 8,
      "byteOffset": 112224,
      "componentType": 5126,
      "count": 501,
      "max": [
        0.7690680027008057,
        -0.5833222270011902,
        -0.19796009361743927,
        0.17974714934825897
      ],
      "min": [
        0.7273461222648621,
        -0.621782660484314,
        -0.22813363373279572,
        0.1688617765903473
      ],
      "type": "VEC4"
    },
    {
      "bufferView": 6,
      "byteOffset": 32092,
      "componentType": 5126,
      "count": 501,
      "max": [
        20.83333396911621
      ],
      "min": [
        0.0
      ],
      "type": "SCALAR"
    },
    {
      "bufferView": 8,
      "byteOffset": 120240,
      "componentType": 5126,
      "count": 501,
      "max": [
        0.37600308656692505,
        -0.37250664830207825,
        -0.6345270276069641,
        0.5814245939254761
      ],
      "min": [
        0.3247828781604767,
        -0.39279651641845703,
        -0.6597932577133179,
        0.5332837700843811
      ],
      "type": "VEC4"
    },
    {
      "bufferView": 6,
      "byteOffset": 34096,
      "componentType": 5126,
      "count": 501,
      "max": [
        20.83333396911621
      ],
      "min": [
        0.0
      ],
      "type": "SCALAR"
    },
    {
      "bufferView": 8,
      "byteOffset": 128256,
      "componentType": 5126,
      "count": 501,
      "max": [
        0.7804118394851685,
        -0.6043052077293396,
        -0.03969234228134155,
        0.154680535197258
      ],
      "min": [
        0.7346080541610718,
        -0.6595544219017029,
        -0.051586925983428955,
        0.15124008059501648
      ],
      "type": "VEC4"
    },
    {
      "bufferView": 6,
      "byteOffset": 36100,
      "componentType": 5126,
      "count": 1,
      "max": [
        0.0
      ],
      "min": [
        0.0
      ],
      "type": "SCALAR"
    },
    {
      "bufferView": 8,
      "byteOffset": 136272,
      "componentType": 5126,
      "count": 1,
      "max": [
        -0.008390515111386776,
        -0.0013446112861856818,
        0.2576044797897339,
        0.9662131071090698
      ],
      "min": [
        -0.008390515111386776,
        -0.0013446112861856818,
        0.2576044797897339,
        0.9662131071090698
      ],
      "type": "VEC4"
    },
    {
      "bufferView": 6,
      "byteOffset": 36104,
      "componentType": 5126,
      "count": 501,
      "max": [
        20.83333396911621
      ],
      "min": [
        0.0
      ],
      "type": "SCALAR"
    },
    {
      "bufferView": 8,
      "byteOffset": 136288,
      "componentType": 5126,
      "count": 501,
      "max": [
        0.07333025336265564,
        0.9990218877792358,
        0.005599197465926409,
        0.12080346792936325
      ],
      "min": [
        -0.05337178707122803,
        -0.9990890622138977,
        -0.0017734335269778967,
        1.9677678153584566e-07
      ],
      "type": "VEC4"
    },
    {
      "bufferView": 6,
      "byteOffset": 38108,
      "componentType": 5126,
      "count": 1,
      "max": [
        0.0
      ],
      "min": [
        0.0
      ],
      "type": "SCALAR"
    },
    {
      "bufferView": 8,
      "byteOffset": 144304,
      "componentType": 5126,
      "count": 1,
      "max": [
        -9.422309688034147e-08,
        9.800815092830817e-08,
        0.40085354447364807,
        0.9161421656608582
      ],
      "min": [
        -9.422309688034147e-08,
        9.800815092830817e-08,
        0.40085354447364807,
        0.9161421656608582
      ],
      "type": "VEC4"
    },
    {
      "bufferView": 6,
      "byteOffset": 38112,
      "componentType": 5126,
      "count": 1,
      "max": [
        0.0
      ],
      "min": [
        0.0
      ],
      "type": "SCALAR"
    },
    {
      "bufferView": 8,
      "byteOffset": 144320,
      "componentType": 5126,
      "count": 1,
      "max": [
        -0.556198239326477,
        -0.8310496807098389,
        -4.0975652382257977e-07,
        3.1201574302031077e-07
      ],
      "min": [
        -0.556198239326477,
        -0.8310496807098389,
        -4.0975652382257977e-07,
        3.1201574302031077e-07
      ],
      "type": "VEC4"
    },
    {
      "bufferView": 6,
      "byteOffset": 38116,
      "componentType": 5126,
      "count": 1,
      "max": [
        0.0
      ],
      "min": [
        0.0
      ],
      "type": "SCALAR"
    },
    {
      "bufferView": 7,
      "byteOffset": 6096,
      "componentType": 5126,
      "count": 1,
      "max": [
        -0.5079463124275208,
        0.8982163667678833,
        3.6269011616241187e-07
      ],
      "min": [
        -0.5079463124275208,
        0.8982163667678833,
        3.6269011616241187e-07
      ],
      "type": "VEC3"
    },
    {
      "bufferView": 6,
      "byteOffset": 38120,
      "componentType": 5126,
      "count": 501,
      "max": [
        20.83333396911621
      ],
      "min": [
        0.0
      ],
      "type": "SCALAR"
    },
    {
      "bufferView": 8,
      "byteOffset": 144336,
      "componentType": 5126,
      "count": 501,
      "max": [
        0.004225514829158783,
        0.007389429956674576,
        0.2896865904331207,
        0.9860979914665222
      ],
      "min": [
        -0.004335448611527681,
        -2.799054300339776e-06,
        0.16616475582122803,
        0.9570832252502441
      ],
      "type": "VEC4"
    },
    {
      "bufferView": 6,
      "byteOffset": 40124,
      "componentType": 5126,
      "count": 500,
      "max": [
        20.83333396911621
      ],
      "min": [
        0.0
      ],
      "type": "SCALAR"
    },
    {
      "bufferView": 8,
      "byteOffset": 152352,
      "componentType": 5126,
      "count": 500,
      "max": [
        0.18282173573970795,
        0.16619156301021576,
        0.11018344014883041,
        0.9937817454338074
      ],
      "min": [
        -0.1688859462738037,
        0.059281088411808014,
        -0.03450864925980568,
        0.9627128839492798
      ],
      "type": "VEC4"
    },
    {
      "bufferView": 6,
      "byteOffset": 42124,
      "componentType": 5126,
      "count": 458,
      "max": [
        20.83333396911621
      ],
      "min": [
        0.0
      ],
      "type": "SCALAR"
    },
    {
      "bufferView": 8,
      "byteOffset": 160352,
      "componentType": 5126,
      "count": 458,
      "max": [
        0.1545991450548172,
        -0.650348961353302,
        0.24323582649230957,
        0.7426956295967102
      ],
      "min": [
        -0.24518893659114838,
        -0.6981387138366699,
        0.03935170918703079,
        0.6304941773414612
      ],
      "type": "VEC4"
    },
    {
      "bufferView": 6,
      "byteOffset": 43956,
      "componentType": 5126,
      "count": 1,
      "max": [
        0.0
      ],
      "min": [
        0.0
      ],
      "type": "SCALAR"
    },
    {
      "bufferView": 7,
      "byteOffset": 6108,
      "componentType": 5126,
      "count": 1,
      "max": [
        0.02180667780339718,
        1.0551064014434814,
        -0.4306890368461609
      ],
      "min": [
        0.02180667780339718,
        1.0551064014434814,
        -0.4306890368461609
      ],
      "type": "VEC3"
    },
    {
      "bufferView": 6,
      "byteOffset": 43960,
      "componentType": 5126,
      "count": 500,
      "max": [
        20.83333396911621
      ],
      "min": [
        0.0
      ],
      "type": "SCALAR"
    },
    {
      "bufferView": 8,
      "byteOffset": 167680,
      "componentType": 5126,
      "count": 500,
      "max": [
        0.18282291293144226,
        -0.059282612055540085,
        0.03451055660843849,
        0.9927377104759216
      ],
      "min": [
        -0.16888518631458282,
        -0.16619227826595306,
        -0.11018125712871552,
        0.9627128839492798
      ],
      "type": "VEC4"
    },
    {
      "bufferView": 6,
      "byteOffset": 45960,
      "componentType": 5126,
      "count": 442,
      "max": [
        20.83333396911621
      ],
      "min": [
        0.0
      ],
      "type": "SCALAR"
    },
    {
      "bufferView": 8,
      "byteOffset": 175680,
      "componentType": 5126,
      "count": 442,
      "max": [
        0.01044271606951952,
        0.7021380662918091,
        -0.11364010721445084,
        0.7113627791404724
      ],
      "min": [
        -0.24519062042236328,
        0.6934982538223267,
        -0.24323368072509766,
        0.6304938793182373
      ],
      "type": "VEC4"
    },
    {
      "bufferView": 6,
      "byteOffset": 47728,
      "componentType": 5126,
      "count": 501,
      "max": [
        20.83333396911621
      ],
      "min": [
        0.0
      ],
      "type": "SCALAR"
    },
    {
      "bufferView": 8,
      "byteOffset": 182752,
      "componentType": 5126,
      "count": 501,
      "max": [
        0.0030098657589405775,
        0.014376077800989151,
        0.42872875928878784,
        0.9720844030380249
      ],
      "min": [
        -0.014299566857516766,
        -5.666788638336584e-07,
        0.23434250056743622,
        0.9034332633018494
      ],
      "type": "VEC4"
    },
    {
      "bufferView": 6,
      "byteOffset": 49732,
      "componentType": 5126,
      "count": 501,
      "max": [
        20.83333396911621
      ],
      "min": [
        0.0
      ],
      "type": "SCALAR"
    },
    {
      "bufferView": 7,
      "byteOffset": 6120,
      "componentType": 5126,
      "count": 501,
      "max": [
        0.9999998807907104,
        1.0,
        0.9999999403953552
      ],
      "min": [
        0.8286711573600769,
        0.8286712765693665,
        0.8286713361740112
      ],
      "type": "VEC3"
    },
    {
      "bufferView": 6,
      "byteOffset": 51736,
      "componentType": 5126,
      "count": 501,
      "max": [
        20.83333396911621
      ],
      "min": [
        0.0
      ],
      "type": "SCALAR"
    },
    {
      "bufferView": 8,
      "byteOffset": 190768,
      "componentType": 5126,
      "count": 501,
      "max": [
        0.15822716057300568,
        0.1542823314666748,
        0.7765299677848816,
        0.6196794509887695
      ],
      "min": [
        0.12558749318122864,
        0.15198494493961334,
        0.7594547867774963,
        0.5900529026985168
      ],
      "type": "VEC4"
    },
    {
      "bufferView": 6,
      "byteOffset": 53740,
      "componentType": 5126,
      "count": 501,
      "max": [
        20.83333396911621
      ],
      "min": [
        0.0
      ],
      "type": "SCALAR"
    },
    {
      "bufferView": 8,
      "byteOffset": 198784,
      "componentType": 5126,
      "count": 501,
      "max": [
        0.5830814838409424,
        0.8159153461456299,
        0.04787508025765419,
        0.005034448113292456
      ],
      "min": [
        -0.5768500566482544,
        -0.8568726778030396,
        -0.035071685910224915,
        1.273572934223921e-06
      ],
      "type": "VEC4"
    },
    {
      "bufferView": 6,
      "byteOffset": 55744,
      "componentType": 5126,
      "count": 501,
      "max": [
        20.83333396911621
      ],
      "min": [
        0.0
      ],
      "type": "SCALAR"
    },
    {
      "bufferView": 8,
      "byteOffset": 206800,
      "componentType": 5126,
      "count": 501,
      "max": [
        -0.05561266466975212,
        -0.21696308255195618,
        0.3469700813293457,
        0.9209406971931458
      ],
      "min": [
        -0.056003522127866745,
        -0.22130659222602844,
        0.31599491834640503,
        0.9107153415679932
      ],
      "type": "VEC4"
    },
    {
      "bufferView": 6,
      "byteOffset": 57748,
      "componentType": 5126,
      "count": 501,
      "max": [
        20.83333396911621
      ],
      "min": [
        0.0
      ],
      "type": "SCALAR"
    },
    {
      "bufferView": 8,
      "byteOffset": 214816,
      "componentType": 5126,
      "count": 501,
      "max": [
        0.1585158109664917,
        -0.1530798226594925,
        -0.7548506855964661,
        0.6251887083053589
      ],
      "min": [
        0.12491238862276077,
        -0.1552751213312149,
        -0.7718797326087952,
        0.5957886576652527
      ],
      "type": "VEC4"
    },
    {
      "bufferView": 6,
      "byteOffset": 59752,
      "componentType": 5126,
      "count": 501,
      "max": [
        20.83333396911621
      ],
      "min": [
        0.0
      ],
      "type": "SCALAR"
    },
    {
      "bufferView": 8,
      "byteOffset": 222832,
      "componentType": 5126,
      "count": 501,
      "max": [
        -0.5365172624588013,
        0.8421740531921387,
        -0.034611307084560394,
        0.02304978482425213
      ],
      "min": [
        -0.6085782051086426,
        0.7925816774368286,
        -0.048877961933612823,
        0.01567073166370392
      ],
      "type": "VEC4"
    },
    {
      "bufferView": 6,
      "byteOffset": 61756,
      "componentType": 5126,
      "count": 501,
      "max": [
        20.83333396911621
      ],
      "min": [
        0.0
      ],
      "type": "SCALAR"
    },
    {
      "bufferView": 8,
      "byteOffset": 230848,
      "componentType": 5126,
      "count": 501,
      "max": [
        -0.055399421602487564,
        0.22113396227359772,
        -0.31558388471603394,
        0.9211095571517944
      ],
      "min": [
        -0.05783477798104286,
        0.2179703563451767,
        -0.34091854095458984,
        0.9126437902450562
      ],
      "type": "VEC4"
    }
  ],
  "animations": [
    {
      "channels": [
        {
          "sampler": 0,
          "target": {
            "node": 11,
            "path": "translation"
          }
        },
        {
          "sampler": 1,
          "target": {
            "node": 12,
            "path": "rotation"
          }
        },
        {
          "sampler": 2,
          "target": {
            "node": 13,
            "path": "rotation"
          }
        },
        {
          "sampler": 3,
          "target": {
            "node": 14,
            "path": "rotation"
          }
        },
        {
          "sampler": 4,
          "target": {
            "node": 15,
            "path": "rotation"
          }
        },
        {
          "sampler": 5,
          "target": {
            "node": 15,
            "path": "scale"
          }
        },
        {
          "sampler": 6,
          "target": {
            "node": 16,
            "path": "rotation"
          }
        },
        {
          "sampler": 7,
          "target": {
            "node": 16,
            "path": "scale"
          }
        },
        {
          "sampler": 8,
          "target": {
            "node": 17,
            "path": "rotation"
          }
        },
        {
          "sampler": 9,
          "target": {
            "node": 17,
            "path": "scale"
          }
        },
        {
          "sampler": 10,
          "target": {
            "node": 18,
            "path": "rotation"
          }
        },
        {
          "sampler": 11,
          "target": {
            "node": 18,
            "path": "scale"
          }
        },
        {
          "sampler": 12,
          "target": {
            "node": 19,
            "path": "rotation"
          }
        },
        {
          "sampler": 13,
          "target": {
            "node": 20,
            "path": "rotation"
          }
        },
        {
          "sampler": 14,
          "target": {
            "node": 21,
            "path": "rotation"
          }
        },
        {
          "sampler": 15,
          "target": {
            "node": 22,
            "path": "translation"
          }
        },
        {
          "sampler": 16,
          "target": {
            "node": 22,
            "path": "rotation"
          }
        },
        {
          "sampler": 17,
          "target": {
            "node": 23,
            "path": "translation"
          }
        },
        {
          "sampler": 18,
          "target": {
            "node": 24,
            "path": "translation"
          }
        },
        {
          "sampler": 19,
          "target": {
            "node": 25,
            "path": "rotation"
          }
        },
        {
          "sampler": 20,
          "target": {
            "node": 26,
            "path": "rotation"
          }
        },
        {
          "sampler": 21,
          "target": {
            "node": 27,
            "path": "rotation"
          }
        },
        {
          "sampler": 22,
          "target": {
            "node": 29,
            "path": "rotation"
          }
        },
        {
          "sampler": 23,
          "target": {
            "node": 30,
            "path": "rotation"
          }
        },
        {
          "sampler": 24,
          "target": {
            "node": 31,
            "path": "rotation"
          }
        },
        {
          "sampler": 25,
          "target": {
            "node": 35,
            "path": "rotation"
          }
        },
        {
          "sampler": 26,
          "target": {
            "node": 36,
            "path": "rotation"
          }
        },
        {
          "sampler": 27,
          "target": {
            "node": 37,
            "path": "rotation"
          }
        },
        {
          "sampler": 28,
          "target": {
            "node": 38,
            "path": "rotation"
          }
        },
        {
          "sampler": 29,
          "target": {
            "node": 39,
            "path": "translation"
          }
        },
        {
          "sampler": 30,
          "target": {
            "node": 39,
            "path": "rotation"
          }
        },
        {
          "sampler": 31,
          "target": {
            "node": 44,
            "path": "rotation"
          }
        },
        {
          "sampler": 32,
          "target": {
            "node": 46,
            "path": "rotation"
          }
        },
        {
          "sampler": 33,
          "target": {
            "node": 50,
            "path": "translation"
          }
        },
        {
          "sampler": 34,
          "target": {
            "node": 51,
            "path": "rotation"
          }
        },
        {
          "sampler": 35,
          "target": {
            "node": 53,
            "path": "rotation"
          }
        },
        {
          "sampler": 36,
          "target": {
            "node": 57,
            "path": "rotation"
          }
        },
        {
          "sampler": 37,
          "target": {
            "node": 57,
            "path": "scale"
          }
        },
        {
          "sampler": 38,
          "target": {
            "node": 60,
            "path": "rotation"
          }
        },
        {
          "sampler": 39,
          "target": {
            "node": 61,
            "path": "rotation"
          }
        },
        {
          "sampler": 40,
          "target": {
            "node": 62,
            "path": "rotation"
          }
        },
        {
          "sampler": 41,
          "target": {
            "node": 65,
            "path": "rotation"
          }
        },
        {
          "sampler": 42,
          "target": {
            "node": 66,
            "path": "rotation"
          }
        },
        {
          "sampler": 43,
          "target": {
            "node": 67,
            "path": "rotation"
          }
        }
      ],
      "name": "Iguana|Iguana|IguanaAction",
      "samplers": [
        {
          "input": 22,
          "interpolation": "LINEAR",
          "output": 23
        },
        {
          "input": 24,
          "interpolation": "LINEAR",
          "output": 25
        },
        {
          "input": 26,
          "interpolation": "LINEAR",
          "output": 27
        },
        {
          "input": 28,
          "interpolation": "LINEAR",
          "output": 29
        },
        {
          "input": 30,
          "interpolation": "LINEAR",
          "output": 31
        },
        {
          "input": 32,
          "interpolation": "LINEAR",
          "output": 33
        },
        {
          "input": 34,
          "interpolation": "LINEAR",
          "output": 35
        },
        {
          "input": 36,
          "interpolation": "LINEAR",
          "output": 37
        },
        {
          "input": 38,
          "interpolation": "LINEAR",
          "output": 39
        },
        {
          "input": 40,
          "interpolation": "LINEAR",
          "output": 41
        },
        {
          "input": 42,
          "interpolation": "LINEAR",
          "output": 43
        },
        {
          "input": 44,
          "interpolation": "LINEAR",
          "output": 45
        },
        {
          "input": 46,
          "interpolation": "LINEAR",
          "output": 47
        },
        {
          "input": 48,
          "interpolation": "LINEAR",
          "output": 49
        },
        {
          "input": 50,
          "interpolation": "LINEAR",
          "output": 51
        },
        {
          "input": 52,
          "interpolation": "LINEAR",
          "output": 53
        },
        {
          "input": 54,
          "interpolation": "LINEAR",
          "output": 55
        },
        {
          "input": 56,
          "interpolation": "LINEAR",
          "output": 57
        },
        {
          "input": 58,
          "interpolation": "LINEAR",
          "output": 59
        },
        {
          "input": 60,
          "interpolation": "LINEAR",
          "output": 61
        },
        {
          "input": 62,
          "interpolation": "LINEAR",
          "output": 63
        },
        {
          "input": 64,
          "interpolation": "LINEAR",
          "output": 65
        },
        {
          "input": 66,
          "interpolation": "LINEAR",
          "output": 67
        },
        {
          "input": 68,
          "interpolation": "LINEAR",
          "output": 69
        },
        {
          "input": 70,
          "interpolation": "LINEAR",
          "output": 71
        },
        {
          "input": 72,
          "interpolation": "LINEAR",
          "output": 73
        },
        {
          "input": 74,
          "interpolation": "LINEAR",
          "output": 75
        },
        {
          "input": 76,
          "interpolation": "LINEAR",
          "output": 77
        },
        {
          "input": 78,
          "interpolation": "LINEAR",
          "output": 79
        },
        {
          "input": 80,
          "interpolation": "LINEAR",
          "output": 81
        },
        {
          "input": 82,
          "interpolation": "LINEAR",
          "output": 83
        },
        {
          "input": 84,
          "interpolation": "LINEAR",
          "output": 85
        },
        {
          "input": 86,
          "interpolation": "LINEAR",
          "output": 87
        },
        {
          "input": 88,
          "interpolation": "LINEAR",
          "output": 89
        },
        {
          "input": 90,
          "interpolation": "LINEAR",
          "output": 91
        },
        {
          "input": 92,
          "interpolation": "LINEAR",
          "output": 93
        },
        {
          "input": 94,
          "interpolation": "LINEAR",
          "output": 95
        },
        {
          "input": 96,
          "interpolation": "LINEAR",
          "output": 97
        },
        {
          "input": 98,
          "interpolation": "LINEAR",
          "output": 99
        },
        {
          "input": 100,
          "interpolation": "LINEAR",
          "output": 101
        },
        {
          "input": 102,
          "interpolation": "LINEAR",
          "output": 103
        },
        {
          "input": 104,
          "interpolation": "LINEAR",
          "output": 105
        },
        {
          "input": 106,
          "interpolation": "LINEAR",
          "output": 107
        },
        {
          "input": 108,
          "interpolation": "LINEAR",
          "output": 109
        }
      ]
    }
  ],
  "asset": {
    "extras": {
      "author": "kenchoo (https://sketchfab.com/kenchoo)",
      "license": "CC-BY-NC-SA-4.0 (http://creativecommons.org/licenses/by-nc-sa/4.0/)",
      "source": "https://sketchfab.com/3d-models/iguana-e1ff8213dddc457ea294b34fbde20ef0",
      "title": "Iguana"
    },
    "generator": "Sketchfab-16.64.0",
    "version": "2.0"
  },
  "bufferViews": [
    {
      "buffer": 0,
      "byteLength": 28080,
      "byteStride": 8,
      "name": "shortBufferViews",
      "target": 34962
    },
    {
      "buffer": 0,
      "byteLength": 68196,
      "byteOffset": 28080,
      "name": "floatBufferViews",
      "target": 34963
    },
    {
      "buffer": 0,
      "byteLength": 56160,
      "byteOffset": 96276,
      "byteStride": 8,
      "name": "floatBufferViews",
      "target": 34962
    },
    {
      "buffer": 0,
      "byteLength": 84240,
      "byteOffset": 152436,
      "byteStride": 12,
      "name": "floatBufferViews",
      "target": 34962
    },
    {
      "buffer": 0,
      "byteLength": 56160,
      "byteOffset": 236676,
      "byteStride": 16,
      "name": "floatBufferViews",
      "target": 34962
    },
    {
      "buffer": 0,
      "byteLength": 4032,
      "byteOffset": 292836,
      "name": "floatBufferViews"
    },
    {
      "buffer": 0,
      "byteLength": 63760,
      "byteOffset": 296868,
      "name": "floatBufferViews"
    },
    {
      "buffer": 0,
      "byteLength": 12132,
      "byteOffset": 360628,
      "byteStride": 12,
      "name": "floatBufferViews"
    },
    {
      "buffer": 0,
      "byteLength": 238864,
      "byteOffset": 372760,
      "byteStride": 16,
      "name": "floatBufferViews"
    }
  ],
  "buffers": [
    {
      "byteLength": 611624,
      "uri": "scene.bin"
    }
  ],
  "extensionsUsed": [
    "KHR_materials_specular"
  ],
  "images": [
    {
      "uri": "textures/Material.005_baseColor.png"
    },
    {
      "uri": "textures/Material.005_metallicRoughness.png"
    },
    {
      "uri": "textures/Material.006_baseColor.png"
    }
  ],
  "materials": [
    {
      "alphaMode": "BLEND",
      "doubleSided": true,
      "extensions": {
        "KHR_materials_specular": {
          "specularColorFactor": [
            1.0,
            1.0,
            1.0
          ],
          "specularFactor": 1.0
        }
      },
      "name": "Material.005",
      "pbrMetallicRoughness": {
        "baseColorTexture": {
          "index": 0
        },
        "metallicFactor": 0.0,
        "metallicRoughnessTexture": {
          "index": 1
        }
      }
    },
    {
      "doubleSided": true,
      "extensions": {
        "KHR_materials_specular": {
          "specularColorFactor": [
            1.0,
            1.0,
            1.0
          ],
          "specularFactor": 0.047238239202252806
        }
      },
      "name": "Material.006",
      "pbrMetallicRoughness": {
        "baseColorTexture": {
          "index": 2
        },
        "metallicFactor": 0.0,
        "metallicRoughnessTexture": {
          "index": 1
        }
      }
    }
  ],
  "meshes": [
    {
      "name": "Object_0",
      "primitives": [
        {
          "attributes": {
            "JOINTS_0": 16,
            "NORMAL": 1,
            "POSITION": 0,
            "TEXCOORD_0": 2,
            "TEXCOORD_1": 3,
            "TEXCOORD_2": 2,
            "TEXCOORD_3": 2,
            "WEIGHTS_0": 17
          },
          "indices": 4,
          "material": 0,
          "mode": 4
        }
      ]
    },
    {
      "name": "Object_1",
      "primitives": [
        {
          "attributes": {
            "JOINTS_0": 18,
            "NORMAL": 6,
            "POSITION": 5,
            "TEXCOORD_0": 7,
            "TEXCOORD_1": 8,
            "TEXCOORD_2": 7,
            "TEXCOORD_3": 7,
            "WEIGHTS_0": 19
          },
          "indices": 9,
          "material": 1,
          "mode": 4
        }
      ]
    },
    {
      "name": "Object_2",
      "primitives": [
        {
          "attributes": {
            "JOINTS_0": 20,
            "NORMAL": 11,
            "POSITION": 10,
            "TEXCOORD_0": 12,
            "TEXCOORD_1": 13,
            "TEXCOORD_2": 12,
            "TEXCOORD_3": 12,
            "WEIGHTS_0": 21
          },
          "indices": 14,
          "material": 1,
          "mode": 4
        }
      ]
    }
  ],
  "nodes": [
    {
      "children": [
        1
      ],
      "matrix": [
        1.0,
        0.0,
        0.0,
        0.0,
        0.0,
        2.220446049250313e-16,
        -1.0,
        0.0,
        0.0,
        1.0,
        2.220446049250313e-16,
        0.0,
        0.0,
        0.0,
        0.0,
        1.0
      ],
      "name": "Sketchfab_model"
    },
    {
      "children": [
        2
      ],
      "name": "root"
    },
    {
      "children": [
        3
      ],
      "matrix": [
        1.0,
        0.0,
        0.0,
        0.0,
        0.0,
        2.220446049250313e-16,
        1.0,
        0.0,
        0.0,
        -1.0,
        2.220446049250313e-16,
        0.0,
        0.0,
        0.0,
        0.0,
        1.0
      ],
      "name": "GLTF_SceneRootNode"
    },
    {
      "children": [
        4
      ],
      "name": "Iguana_64"
    },
    {
      "children": [
        5,
        7,
        8,
        10,
        6,
        9
      ],
      "name": "GLTF_created_0"
    },
    {
      "children": [
        11
      ],
      "name": "GLTF_created_0_rootJoint"
    },
    {
      "name": "body_62"
    },
    {
      "mesh": 0,
      "name": "Object_7",
      "skin": 0
    },
    {
      "mesh": 1,
      "name": "Object_8",
      "skin": 0
    },
    {
      "name": "eye ball_63"
    },
    {
      "mesh": 2,
      "name": "Object_10",
      "skin": 0
    },
    {
      "children": [
        12,
        25,
        29,
        33
      ],
      "name": "Pelvis_61",
      "translation": [
        -9.009125392367423e-07,
        1.2628806829452515,
        -2.930417060852051
      ]
    },
    {
      "children": [
        13
      ],
      "name": "Tail.1_12",
      "rotation": [
        -0.5735023617744446,
        -0.4136366546154022,
        0.5735019445419312,
        0.4136367440223694
      ],
      "scale": [
        1.0000001192092896,
        1.0000001192092896,
        1.0000001192092896
      ],
      "translation": [
        5.684341886080802e-14,
        0.4964388608932495,
        2.866294437353645e-07
      ]
    },
    {
      "children": [
        14
      ],
      "name": "Tail.2_11",
      "rotation": [
        0.09843961149454117,
        0.9951430559158325,
        2.9473442353378232e-08,
        7.51312114743996e-08
      ],
      "scale": [
        1.0000001192092896,
        0.9999999403953552,
        1.0
      ],
      "translation": [
        -5.9604850832784e-08,
        2.8356032371520996,
        1.5631940186722204e-13
      ]
    },
    {
      "children": [
        15
      ],
      "name": "Tail.3_10",
      "rotation": [
        -1.8017907166267833e-08,
        2.1338101419132727e-07,
        0.05552845820784569,
        0.9984571933746338
      ],
      "translation": [
        2.98023280720372e-07,
        2.5740339756011963,
        9.237055564881302e-14
      ]
    },
    {
      "children": [
        16
      ],
      "name": "Tail.4_9",
      "rotation": [
        -2.6939551034388387e-08,
        -2.5622484827181324e-06,
        0.005318148992955685,
        0.9999858736991882
      ],
      "translation": [
        -1.49010324079768e-08,
        2.514031410217285,
        -5.684341886080802e-14
      ]
    },
    {
      "children": [
        17
      ],
      "name": "Tail.5_8",
      "rotation": [
        -0.026629608124494553,
        -0.999645471572876,
        4.8479027014991516e-08,
        2.935479869847768e-06
      ],
      "scale": [
        1.0,
        0.9999999403953552,
        1.0
      ],
      "translation": [
        -2.980339885993999e-08,
        2.3855528831481934,
        6.892264536872972e-13
      ]
    },
    {
      "children": [
        18
      ],
      "name": "Tail.6_7",
      "rotation": [
        6.080175030120927e-09,
        -8.949880907493935e-07,
        -0.019383857026696205,
        0.999812126159668
      ],
      "scale": [
        0.9999998807907104,
        0.9999998807907104,
        1.0
      ],
      "translation": [
        -3.1441516057384433e-13,
        2.4303905963897705,
        4.263256414560601e-13
      ]
    },
    {
      "children": [
        19
      ],
      "name": "Tail.7_6",
      "rotation": [
        -0.0013831936521455646,
        -0.9999990463256836,
        -8.86421991364017e-10,
        3.1391616062137473e-07
      ],
      "scale": [
        1.0,
        0.9999998211860657,
        1.0
      ],
      "translation": [
        -2.9802192713646036e-08,
        1.93362295627594,
        -7.105427357601002e-15
      ]
    },
    {
      "children": [
        20
      ],
      "name": "Tail.008_5",
      "rotation": [
        3.760832978372264e-09,
        -3.397985182118646e-08,
        -0.018033891916275024,
        0.9998373985290527
      ],
      "scale": [
        0.9999999403953552,
        1.0,
        1.0
      ],
      "translation": [
        2.980235080940474e-08,
        2.1802117824554443,
        2.3092638912203256e-14
      ]
    },
    {
      "children": [
        21
      ],
      "name": "Tail.009_4",
      "rotation": [
        -1.5450177419449977e-14,
        -1.8604137674849142e-10,
        -5.681068060425787e-08,
        1.0
      ],
      "translation": [
        1.0430814256778831e-07,
        1.5480445623397827,
        1.7763568394002505e-15
      ]
    },
    {
      "children": [
        22
      ],
      "name": "Tail.011_3",
      "rotation": [
        -2.267156906654577e-09,
        3.5832219413833855e-09,
        0.02497658133506775,
        0.9996880292892456
      ],
      "scale": [
        1.0,
        0.9999999403953552,
        1.0
      ],
      "translation": [
        1.1102230246251565e-14,
        1.548040747642517,
        7.105427357601002e-15
      ]
    },
    {
      "children": [
        23
      ],
      "name": "Tail.012_2",
      "rotation": [
        -1.2492026302268755e-09,
        1.8582768657182669e-09,
        0.012983755208551884,
        0.9999157190322876
      ],
      "scale": [
        0.9999999403953552,
        1.0000001192092896,
        1.0
      ],
      "translation": [
        -2.9449327421104954e-09,
        1.6141414642333984,
        3.4961183253967576e-15
      ]
    },
    {
      "children": [
        24
      ],
      "name": "Tail.013_1",
      "rotation": [
        2.8693349918285094e-09,
        -4.359420824329163e-09,
        -0.030619097873568535,
        0.9995311498641968
      ],
      "translation": [
        -2.9802311729554276e-08,
        1.7229547500610352,
        8.881784197001252e-15
      ]
    },
    {
      "name": "Tail.013_end_0",
      "rotation": [
        3.80850831150888e-15,
        7.565129078734856e-15,
        3.5390254282674505e-08,
        1.0
      ],
      "translation": [
        2.980233304583635e-08,
        1.9025044441223145,
        3.375077994860476e-14
      ]
    },
    {
      "children": [
        26
      ],
      "name": "Thigh_L_16",
      "rotation": [
        0.7453293204307556,
        0.602702796459198,
        0.22162224352359772,
        0.1792125403881073
      ],
      "scale": [
        1.0000001192092896,
        1.000000238418579,
        1.0
      ],
      "translation": [
        0.6030698418617249,
        0.13971123099327087,
        0.1907639354467392
      ]
    },
    {
      "children": [
        27
      ],
      "name": "Calf_L_15",
      "rotation": [
        0.360441118478775,
        0.37769776582717896,
        0.652797520160675,
        0.5488917231559753
      ],
      "scale": [
        0.9999999403953552,
        0.9999999403953552,
        0.9999998807907104
      ],
      "translation": [
        -1.7881393432617188e-07,
        2.0106165409088135,
        -1.0024909613548516e-07
      ]
    },
    {
      "children": [
        28
      ],
      "name": "Foot_L_14",
      "rotation": [
        0.7637659311294556,
        0.624692976474762,
        0.04923594743013382,
        0.15490670502185822
      ],
      "scale": [
        0.9999999403953552,
        1.0000001192092896,
        1.0
      ],
      "translation": [
        -7.450580596923828e-09,
        2.2160744667053223,
        1.4156103134155273e-07
      ]
    },
    {
      "name": "Foot_L_end_13",
      "rotation": [
        -2.939486876130104e-08,
        -8.381903171539307e-08,
        -2.3312168195843697e-08,
        1.0
      ],
      "translation": [
        -7.078051567077637e-08,
        0.7615537643432617,
        5.960464477539063e-08
      ]
    },
    {
      "children": [
        30
      ],
      "name": "Thigh_R_20",
      "rotation": [
        0.7453293800354004,
        -0.6027026772499084,
        -0.22162237763404846,
        0.1792125254869461
      ],
      "scale": [
        0.9999999403953552,
        0.9999999403953552,
        1.0
      ],
      "translation": [
        -0.6030680537223816,
        0.13971123099327087,
        0.1907639354467392
      ]
    },
    {
      "children": [
        31
      ],
      "name": "Calf_R_19",
      "rotation": [
        0.360441118478775,
        -0.37769752740859985,
        -0.6527975797653198,
        0.5488917231559753
      ],
      "scale": [
        0.9999999403953552,
        1.0,
        1.0
      ],
      "translation": [
        -8.940696716308594e-08,
        2.0106165409088135,
        9.726343819238537e-08
      ]
    },
    {
      "children": [
        32
      ],
      "name": "Foot_R_18",
      "rotation": [
        0.7637660503387451,
        -0.6246929168701172,
        -0.049235835671424866,
        0.154906764626503
      ],
      "scale": [
        0.9999999403953552,
        0.9999999403953552,
        1.0000001192092896
      ],
      "translation": [
        1.2479722499847412e-07,
        2.2160754203796387,
        7.078051567077637e-08
      ]
    },
    {
      "name": "Foot_R_end_17",
      "rotation": [
        -1.3483804650604725e-07,
        5.587934559514451e-09,
        2.1318554388471966e-07,
        1.0
      ],
      "scale": [
        1.0000001192092896,
        1.0,
        1.0
      ],
      "translation": [
        -2.5704503059387207e-07,
        0.761553943157196,
        -1.4156103134155273e-07
      ]
    },
    {
      "children": [
        34
      ],
      "name": "Spine.1_60",
      "rotation": [
        0.4898793399333954,
        0.5099197626113892,
        0.4898793697357178,
        0.5099198222160339
      ],
      "scale": [
        0.9999999403953552,
        0.9999998211860657,
        0.9999998807907104
      ],
      "translation": [
        5.684341886080802e-14,
        0.4964388608932495,
        2.866294437353645e-07
      ]
    },
    {
      "children": [
        35
      ],
      "name": "Spine.2_59",
      "rotation": [
        7.53546203213773e-08,
        3.3402125154680107e-07,
        -0.2508186399936676,
        0.9680342078208923
      ],
      "scale": [
        0.9999999403953552,
        1.0,
        1.0
      ],
      "translation": [
        -4.097815065051691e-08,
        2.432602643966675,
        7.66053886991358e-15
      ]
    },
    {
      "children": [
        36,
        59,
        64,
        69,
        71
      ],
      "name": "Spine.3_58",
      "rotation": [
        -1.3701503576157847e-07,
        -1.0504431458002728e-07,
        0.2576049566268921,
        0.9662503600120544
      ],
      "scale": [
        1.0,
        1.0,
        1.0000001192092896
      ],
      "translation": [
        -1.6391211943300732e-07,
        0.9840008020401001,
        -1.3500311979441904e-13
      ]
    },
    {
      "children": [
        37
      ],
      "name": "Neck.1_43",
      "rotation": [
        0.05338989570736885,
        0.9985737800598145,
        3.335775033974642e-08,
        1.9442948939740745e-07
      ],
      "translation": [
        3.725788566555366e-09,
        2.0363218784332275,
        -2.2737367544323206e-13
      ]
    },
    {
      "children": [
        38
      ],
      "name": "Neck.2_42",
      "rotation": [
        -9.360243780065503e-08,
        9.783867938040203e-08,
        0.39922261238098145,
        0.9168540239334106
      ],
      "translation": [
        4.1723239974089665e-07,
        1.9760029315948486,
        8.526512829121202e-14
      ]
    },
    {
      "children": [
        39,
        41,
        43,
        50,
        57
      ],
      "name": "Head_41",
      "rotation": [
        -0.4944908320903778,
        -0.8691828846931458,
        -3.305688949239993e-07,
        2.728508547988895e-07
      ],
      "scale": [
        1.0,
        1.0000001192092896,
        1.0000001192092896
      ],
      "translation": [
        1.1920903375539638e-07,
        0.9264936447143555,
        2.2737367544323206e-13
      ]
    },
    {
      "children": [
        40
      ],
      "name": "Jaw_22",
      "rotation": [
        -7.176257810215247e-08,
        -2.793046633087215e-06,
        0.16616478562355042,
        0.9860981106758118
      ],
      "scale": [
        1.0,
        0.9999999403953552,
        1.0
      ],
      "translation": [
        -0.5079449415206909,
        0.8982179164886475,
        3.603697678045137e-07
      ]
    },
    {
      "name": "Jaw_end_21",
      "rotation": [
        8.66862029207105e-13,
        1.49254955061906e-08,
        1.5646207884856267e-07,
        1.0
      ],
      "scale": [
        1.0000001192092896,
        1.0000001192092896,
        1.0000001192092896
      ],
      "translation": [
        -4.050093593832571e-12,
        1.2167906761169434,
        -2.5579538487363607e-12
      ]
    },
    {
      "children": [
        42
      ],
      "name": "Jaw.1_24",
      "rotation": [
        0.1171000599861145,
        0.9931201338768005,
        7.887784647664375e-08,
        1.9336758327881398e-07
      ],
      "scale": [
        1.0,
        0.9999995827674866,
        1.0
      ],
      "translation": [
        -1.3408877849578857,
        0.7621511220932007,
        -1.342057657893747e-06
      ]
    },
    {
      "name": "Jaw.1_end_23",
      "rotation": [
        -9.719308691202855e-14,
        1.6689392978719297e-08,
        -5.960465898624534e-08,
        1.0
      ],
      "translation": [
        5.960412607919352e-08,
        0.6868354678153992,
        1.8474111129762605e-13
      ]
    },
    {
      "children": [
        44,
        46,
        48
      ],
      "name": "EyeParent_L_31",
      "rotation": [
        0.46493080258369446,
        0.6463027596473694,
        0.3823723793029785,
        0.4689601957798004
      ],
      "scale": [
        1.0,
        1.0000001192092896,
        1.0
      ],
      "translation": [
        0.021807188168168068,
        1.055107831954956,
        0.4306906759738922
      ]
    },
    {
      "children": [
        45
      ],
      "name": "FirstEyelid_L_26",
      "rotation": [
        0.18282166123390198,
        0.1661914736032486,
        0.11018334329128265,
        0.9627130031585693
      ],
      "scale": [
        0.9999998807907104,
        0.9999999403953552,
        1.0
      ],
      "translation": [
        4.172325134277344e-07,
        0.11617529392242432,
        -2.2351741790771484e-07
      ]
    },
    {
      "name": "FirstEyelid_L_end_25",
      "rotation": [
        1.0803341154996815e-07,
        -5.541369318962097e-07,
        -1.5161930377871613e-06,
        1.0
      ],
      "scale": [
        1.0,
        1.0000001192092896,
        1.0
      ],
      "translation": [
        1.4901161193847656e-07,
        0.3632931709289551,
        -1.1920928955078125e-07
      ]
    },
    {
      "children": [
        47
      ],
      "name": "SecondEyelid_L_28",
      "rotation": [
        -0.2451888918876648,
        -0.6951228380203247,
        0.243235781788826,
        0.6304943561553955
      ],
      "scale": [
        0.9999999403953552,
        0.9999998807907104,
        0.9999998211860657
      ],
      "translation": [
        4.172325134277344e-07,
        0.11617529392242432,
        -2.2351741790771484e-07
      ]
    },
    {
      "name": "SecondEyelid_L_end_27",
      "rotation": [
        -1.4817342162132263e-06,
        -5.885958671569824e-07,
        2.1606683731079102e-07,
        1.0
      ],
      "translation": [
        1.4901161193847656e-07,
        0.3442085385322571,
        -2.086162567138672e-07
      ]
    },
    {
      "children": [
        49
      ],
      "name": "Eye_L_30",
      "rotation": [
        -0.09485818445682526,
        -0.6985006332397461,
        0.09545201808214188,
        0.702842652797699
      ],
      "scale": [
        0.9999998807907104,
        0.9999999403953552,
        0.9999999403953552
      ],
      "translation": [
        4.172325134277344e-07,
        0.11617529392242432,
        -2.2351741790771484e-07
      ]
    },
    {
      "name": "Eye_L_end_29",
      "rotation": [
        -2.4228356778621674e-06,
        -2.0330771803855896e-06,
        1.0675285011529922e-06,
        1.0
      ],
      "scale": [
        0.9999999403953552,
        1.0,
        1.0
      ],
      "translation": [
        -2.4959444999694824e-07,
        0.22856765985488892,
        4.3213367462158203e-07
      ]
    },
    {
      "children": [
        51,
        53,
        55
      ],
      "name": "EyeParent_R_38",
      "rotation": [
        -0.3823726177215576,
        0.46895894408226013,
        -0.46493175625801086,
        0.6463027000427246
      ],
      "scale": [
        1.0000001192092896,
        1.0,
        0.9999999403953552
      ],
      "translation": [
        0.021808093413710594,
        1.0551084280014038,
        -0.43068888783454895
      ]
    },
    {
      "children": [
        52
      ],
      "name": "FirstEyelid_R_33",
      "rotation": [
        0.18282285332679749,
        -0.1661922186613083,
        -0.11018122732639313,
        0.9627128839492798
      ],
      "scale": [
        1.0,
        1.0,
        1.0000001192092896
      ],
      "translation": [
        3.2782554626464844e-07,
        0.11617636680603027,
        -1.6391277313232422e-07
      ]
    },
    {
      "name": "FirstEyelid_R_end_32",
      "rotation": [
        -1.1045485734939575e-06,
        1.5171244740486145e-06,
        5.494803190231323e-07,
        1.0
      ],
      "translation": [
        2.980232238769531e-07,
        0.3632926940917969,
        2.384185791015625e-07
      ]
    },
    {
      "children": [
        54
      ],
      "name": "SecondEyelid_R_35",
      "rotation": [
        -0.24519051611423492,
        0.6951232552528381,
        -0.24323363602161407,
        0.6304939985275269
      ],
      "scale": [
        1.0000001192092896,
        1.0,
        1.0
      ],
      "translation": [
        3.2782554626464844e-07,
        0.11617636680603027,
        -1.6391277313232422e-07
      ]
    },
    {
      "name": "SecondEyelid_R_end_34",
      "rotation": [
        -2.9802322387695313e-08,
        9.164215271084686e-07,
        -7.562339874311874e-07,
        1.0
      ],
      "scale": [
        0.9999999403953552,
        1.0,
        0.9999999403953552
      ],
      "translation": [
        2.086162567138672e-07,
        0.34420815110206604,
        -2.682209014892578e-07
      ]
    },
    {
      "children": [
        56
      ],
      "name": "Eye_R_37",
      "rotation": [
        -0.09486030042171478,
        0.6985011100769043,
        -0.09544909745454788,
        0.7028422951698303
      ],
      "scale": [
        1.0000003576278687,
        1.000000238418579,
        1.0000001192092896
      ],
      "translation": [
        3.2782554626464844e-07,
        0.11617636680603027,
        -1.6391277313232422e-07
      ]
    },
    {
      "name": "Eye_R_end_36",
      "rotation": [
        -1.3504177331924438e-07,
        1.949956640601158e-06,
        -1.5341212247221847e-06,
        1.0
      ],
      "scale": [
        1.0,
        0.9999999403953552,
        1.0000001192092896
      ],
      "translation": [
        2.60770320892334e-08,
        0.22856731712818146,
        5.21540641784668e-07
      ]
    },
    {
      "children": [
        58
      ],
      "name": "Gularskin_40",
      "rotation": [
        -1.629970256544766e-07,
        -5.663675324285578e-07,
        0.428728848695755,
        0.9034332633018494
      ],
      "scale": [
        0.9999998807907104,
        0.9999999403953552,
        1.0
      ],
      "translation": [
        -1.9257365465164185,
        0.33295831084251404,
        -1.8800767520588124e-06
      ]
    },
    {
      "name": "Gularskin_end_39",
      "rotation": [
        3.4638954980173095e-14,
        -1.2261690329751218e-08,
        1.937150670983101e-07,
        1.0
      ],
      "scale": [
        1.0000001192092896,
        1.0000001192092896,
        1.0000001192092896
      ],
      "translation": [
        5.066393100605637e-07,
        1.090299129486084,
        -7.105427357601002e-14
      ]
    },
    {
      "children": [
        60
      ],
      "name": "Clavicle_L_48",
      "rotation": [
        0.04330969974398613,
        0.22217512130737305,
        0.14066684246063232,
        0.9638336896896362
      ],
      "translation": [
        -0.1529104858636856,
        1.4751607179641724,
        0.7199504375457764
      ]
    },
    {
      "children": [
        61
      ],
      "name": "UpperArm_L_47",
      "rotation": [
        0.15059959888458252,
        0.14761674404144287,
        0.7738324403762817,
        0.5972540974617004
      ],
      "scale": [
        1.0000001192092896,
        1.0,
        1.0
      ],
      "translation": [
        -2.9802322387695313e-08,
        1.2410352230072021,
        2.384185791015625e-07
      ]
    },
    {
      "children": [
        62
      ],
      "name": "Forearm_L_46",
      "rotation": [
        -0.586219072341919,
        -0.8092333078384399,
        0.03613385930657387,
        0.013529025949537754
      ],
      "scale": [
        1.0,
        0.9999998807907104,
        1.0
      ],
      "translation": [
        -2.384185791015625e-07,
        2.0747663974761963,
        2.9802322387695313e-08
      ]
    },
    {
      "children": [
        63
      ],
      "name": "Hand_L_45",
      "rotation": [
        -0.05600349232554436,
        -0.21696311235427856,
        0.34696999192237854,
        0.9107153415679932
      ],
      "scale": [
        1.0,
        0.9999998807907104,
        1.0
      ],
      "translation": [
        1.30385160446167e-07,
        1.3869892358779907,
        4.954636096954346e-07
      ]
    },
    {
      "name": "Hand_L_end_44",
      "rotation": [
        4.6566128730773926e-09,
        -1.5217809732348542e-06,
        -5.587935003603661e-09,
        1.0
      ],
      "scale": [
        1.0000001192092896,
        1.0,
        1.0
      ],
      "translation": [
        -4.6566128730773926e-08,
        0.4256107807159424,
        -8.009374141693115e-08
      ]
    },
    {
      "children": [
        65
      ],
      "name": "Clavicle_R_53",
      "rotation": [
        -0.14066685736179352,
        0.9638335704803467,
        -0.04330979660153389,
        0.22217565774917603
      ],
      "scale": [
        1.0,
        1.0000001192092896,
        1.0
      ],
      "translation": [
        -0.15290996432304382,
        1.4751605987548828,
        -0.7199486494064331
      ]
    },
    {
      "children": [
        66
      ],
      "name": "UpperArm_R_52",
      "rotation": [
        0.1505994200706482,
        -0.1476166993379593,
        -0.773832380771637,
        0.59725421667099
      ],
      "scale": [
        1.0000001192092896,
        1.0,
        0.9999999403953552
      ],
      "translation": [
        -1.1920928955078125e-07,
        1.2410353422164917,
        -3.725290298461914e-08
      ]
    },
    {
      "children": [
        67
      ],
      "name": "Forearm_R_51",
      "rotation": [
        -0.586219072341919,
        0.8092333078384399,
        -0.0361335352063179,
        0.013529240153729916
      ],
      "scale": [
        1.0,
        0.9999997615814209,
        1.0
      ],
      "translation": [
        2.9802322387695313e-08,
        2.074766159057617,
        -5.960464477539063e-08
      ]
    },
    {
      "children": [
        68
      ],
      "name": "Hand_R_50",
      "rotation": [
        -0.05600280687212944,
        0.21696461737155914,
        -0.3469700813293457,
        0.9107150435447693
      ],
      "scale": [
        1.0,
        0.9999999403953552,
        0.9999999403953552
      ],
      "translation": [
        -2.9709190130233765e-07,
        1.3869892358779907,
        1.7136335372924805e-07
      ]
    },
    {
      "name": "Hand_R_end_49",
      "rotation": [
        -2.6775524020195007e-07,
        7.180497050285339e-07,
        1.9185243615993386e-07,
        1.0
      ],
      "scale": [
        1.0,
        1.0000001192092896,
        1.0
      ],
      "translation": [
        8.940696716308594e-08,
        0.4256112575531006,
        -8.381903171539307e-09
      ]
    },
    {
      "children": [
        70
      ],
      "name": "Breast_L_55",
      "rotation": [
        -0.9999151825904846,
        -0.013024556450545788,
        1.389067733725824e-06,
        3.0483629842592563e-08
      ],
      "scale": [
        1.0000001192092896,
        0.999999463558197,
        1.0
      ],
      "translation": [
        -0.6545597910881042,
        1.8338215351104736,
        0.7992379665374756
      ]
    },
    {
      "name": "Breast_L_end_54",
      "rotation": [
        -6.763897886230552e-09,
        -4.084676419324751e-08,
        1.633079522306291e-16,
        1.0
      ],
      "translation": [
        -5.2580844567273743e-08,
        1.227113962173462,
        -3.944789028764717e-08
      ]
    },
    {
      "children": [
        72
      ],
      "name": "Breast_R_57",
      "rotation": [
        1.952638513103011e-06,
        -2.3142757044070095e-08,
        -0.9999151825904846,
        0.013024554587900639
      ],
      "scale": [
        1.0000001192092896,
        0.9999999403953552,
        1.0
      ],
      "translation": [
        -0.6545591950416565,
        1.8338215351104736,
        -0.7992367744445801
      ]
    },
    {
      "name": "Breast_R_end_56",
      "rotation": [
        6.763920090691045e-09,
        2.3148776190189124e-13,
        -5.5130528506079635e-15,
        1.0
      ],
      "translation": [
        -1.3364171991270268e-09,
        1.2271140813827515,
        1.6295210514272185e-08
      ]
    }
  ],
  "samplers": [
    {
      "magFilter": 9729,
      "minFilter": 9987,
      "wrapS": 10497,
      "wrapT": 10497
    }
  ],
  "scene": 0,
  "scenes": [
    {
      "name": "Sketchfab_Scene",
      "nodes": [
        0
      ]
    }
  ],
  "skins": [
    {
      "inverseBindMatrices": 15,
      "joints": [
        5,
        11,
        12,
        13,
        14,
        15,
        16,
        17,
        18,
        19,
        20,
        21,
        22,
        23,
        24,
        25,
        26,
        27,
        28,
        29,
        30,
        31,
        32,
        33,
        34,
        35,
        36,
        37,
        38,
        39,
        40,
        41,
        42,
        43,
        44,
        45,
        46,
        47,
        48,
        49,
        50,
        51,
        52,
        53,
        54,
        55,
        56,
        57,
        58,
        59,
        60,
        61,
        62,
        63,
        64,
        65,
        66,
        67,
        68,
        69,
        70,
        71,
        72
      ],
      "skeleton": 5
    }
  ],
  "textures": [
    {
      "sampler": 0,
      "source": 0
    },
    {
      "sampler": 0,
      "source": 1
    },
    {
      "sampler": 0,
      "source": 2
    }
  ]
}
