{
  "accessors": [
    {
      "bufferView": 2,
      "componentType": 5126,
      "count": 63,
      "max": [
        0.35838013887405396,
        25.668285369873047,
        3.233743906021118
      ],
      "min": [
        -12.345869064331055,
        -0.1043272539973259,
        -0.6669788360595703
      ],
      "type": "VEC3"
    },
    {
      "bufferView": 2,
      "byteOffset": 756,
      "componentType": 5126,
      "count": 63,
      "max": [
        0.9106523990631104,
        0.8580160140991211,
        0.965299129486084
      ],
      "min": [
        -0.998220682144165,
        -0.9991397261619568,
        -0.9786219596862793
      ],
      "type": "VEC3"
    },
    {
      "bufferView": 1,
      "componentType": 5126,
      "count": 63,
      "max": [
        1.7149999141693115,
        1.7061412334442139
      ],
      "min": [
        -0.6796942949295044,
        -0.7061412334442139
      ],
      "type": "VEC2"
    },
    {
      "bufferView": 1,
      "byteOffset": 504,
      "componentType": 5126,
      "count": 63,
      "max": [
        1.0,
        0.8323053121566772
      ],
      "min": [
        1.0,
        0.3772990107536316
      ],
      "type": "VEC2"
    },
    {
      "bufferView": 0,
      "componentType": 5125,
      "count": 177,
      "type": "SCALAR"
    },
    {
      "bufferView": 2,
      "byteOffset": 1512,
      "componentType": 5126,
      "count": 42903,
      "max": [
        16.090335845947266,
        31.9118709564209,
        12.229974746704102
      ],
      "min": [
        -18.489839553833008,
        -10.341650009155273,
        -16.17873764038086
      ],
      "type": "VEC3"
    },
    {
      "bufferView": 2,
      "byteOffset": 516348,
      "componentType": 5126,
      "count": 42903,
      "max": [
        0.999989926815033,
        0.9999796748161316,
        0.9999986290931702
      ],
      "min": [
        -0.9999799132347107,
        -0.9999929070472717,
        -0.9999656677246094
      ],
      "type": "VEC3"
    },
    {
      "bufferView": 3,
      "componentType": 5126,
      "count": 42903,
      "max": [
        0.9999951720237732,
        0.9998742341995239,
        0.9999935626983643,
        1.0
      ],
      "min": [
        -0.9999940991401672,
        -0.9999493956565857,
        -0.9999989867210388,
        -1.0
      ],
      "type": "VEC4"
    },
    {
      "bufferView": 1,
      "byteOffset": 1008,
      "componentType": 5126,
      "count": 42903,
      "max": [
        2.9107160568237305,
        29.523820877075195
      ],
      "min": [
        -0.9566226005554199,
        -2.012897491455078
      ],
      "type": "VEC2"
    },
    {
      "bufferView": 1,
      "byteOffset": 344232,
      "componentType": 5126,
      "count": 42903,
      "max": [
        2.9107160568237305,
        29.523820877075195
      ],
      "min": [
        -0.9566226005554199,
        -2.012897491455078
      ],
      "type": "VEC2"
    },
    {
      "bufferView": 1,
      "byteOffset": 687456,
      "componentType": 5126,
      "count": 42903,
      "max": [
        1.0,
        0.9561666250228882
      ],
      "min": [
        0.0,
        0.26944443583488464
      ],
      "type": "VEC2"
    },
    {
      "bufferView": 1,
      "byteOffset": 1030680,
      "componentType": 5126,
      "count": 42903,
      "max": [
        2.9107160568237305,
        29.523820877075195
      ],
      "min": [
        -0.9566226005554199,
        -2.012897491455078
      ],
      "type": "VEC2"
    },
    {
      "bufferView": 0,
      "byteOffset": 708,
      "componentType": 5125,
      "count": 223575,
      "type": "SCALAR"
    },
    {
      "bufferView": 2,
      "byteOffset": 1031184,
      "componentType": 5126,
      "count": 128,
      "max": [
        14.552980422973633,
        37.067508697509766,
        13.720207214355469
      ],
      "min": [
        -20.116451263427734,
        8.701910972595215,
        -17.270315170288086
      ],
      "type": "VEC3"
    },
    {
      "bufferView": 2,
      "byteOffset": 1032720,
      "componentType": 5126,
      "count": 128,
      "max": [
        0.9616295099258423,
        0.9275689721107483,
        0.9804945588111877
      ],
      "min": [
        -0.9806789755821228,
        -0.0349794439971447,
        -0.9698420166969299
      ],
      "type": "VEC3"
    },
    {
      "bufferView": 3,
      "byteOffset": 686448,
      "componentType": 5126,
      "count": 128,
      "max": [
        0.9693518280982971,
        0.8345417380332947,
        0.9769465923309326,
        1.0
      ],
      "min": [
        -0.9693517684936523,
        -0.9982948303222656,
        -0.9734168648719788,
        -1.0
      ],
      "type": "VEC4"
    },
    {
      "bufferView": 1,
      "byteOffset": 1373904,
      "componentType": 5126,
      "count": 128,
      "max": [
        1.0,
        1.0
      ],
      "min": [
        0.0,
        0.0
      ],
      "type": "VEC2"
    },
    {
      "bufferView": 1,
      "byteOffset": 1374928,
      "componentType": 5126,
      "count": 128,
      "max": [
        1.0,
        1.0
      ],
      "min": [
        0.0,
        0.0
      ],
      "type": "VEC2"
    },
    {
      "bufferView": 1,
      "byteOffset": 1375952,
      "componentType": 5126,
      "count": 128,
      "max": [
        1.0,
        0.7934095859527588
      ],
      "min": [
        1.0,
        0.2820822596549988
      ],
      "type": "VEC2"
    },
    {
      "bufferView": 1,
      "byteOffset": 1376976,
      "componentType": 5126,
      "count": 128,
      "max": [
        1.0,
        1.0
      ],
      "min": [
        0.0,
        0.0
      ],
      "type": "VEC2"
    },
    {
      "bufferView": 0,
      "byteOffset": 895008,
      "componentType": 5125,
      "count": 192,
      "type": "SCALAR"
    },
    {
      "bufferView": 2,
      "byteOffset": 1034256,
      "componentType": 5126,
      "count": 88,
      "max": [
        22.574466705322266,
        33.825584411621094,
        12.199763298034668
      ],
      "min": [
        -17.492355346679688,
        7.514742374420166,
        -16.12404441833496
      ],
      "type": "VEC3"
    },
    {
      "bufferView": 2,
      "byteOffset": 1035312,
      "componentType": 5126,
      "count": 88,
      "max": [
        0.8049527406692505,
        0.9486735463142395,
        0.9371960163116455
      ],
      "min": [
        -0.9403229355812073,
        -0.057339947670698166,
        -0.9870247840881348
      ],
      "type": "VEC3"
    },
    {
      "bufferView": 3,
      "byteOffset": 688496,
      "componentType": 5126,
      "count": 88,
      "max": [
        0.9693517684936523,
        0.8734803199768066,
        0.979918360710144,
        1.0
      ],
      "min": [
        -0.9693518280982971,
        -0.8439032435417175,
        -0.9232232570648193,
        -1.0
      ],
      "type": "VEC4"
    },
    {
      "bufferView": 1,
      "byteOffset": 1378000,
      "componentType": 5126,
      "count": 88,
      "max": [
        1.0,
        1.0
      ],
      "min": [
        0.0,
        0.0
      ],
      "type": "VEC2"
    },
    {
      "bufferView": 1,
      "byteOffset": 1378704,
      "componentType": 5126,
      "count": 88,
      "max": [
        1.0,
        1.0
      ],
      "min": [
        0.0,
        0.0
      ],
      "type": "VEC2"
    },
    {
      "bufferView": 1,
      "byteOffset": 1379408,
      "componentType": 5126,
      "count": 88,
      "max": [
        1.0,
        0.8899942636489868
      ],
      "min": [
        1.0,
        0.2910940945148468
      ],
      "type": "VEC2"
    },
    {
      "bufferView": 1,
      "byteOffset": 1380112,
      "componentType": 5126,
      "count": 88,
      "max": [
        1.0,
        1.0
      ],
      "min": [
        0.0,
        0.0
      ],
      "type": "VEC2"
    },
    {
      "bufferView": 0,
      "byteOffset": 895776,
      "componentType": 5125,
      "count": 132,
      "type": "SCALAR"
    },
    {
      "bufferView": 2,
      "byteOffset": 1036368,
      "componentType": 5126,
      "count": 124,
      "max": [
        18.014768600463867,
        36.53357696533203,
        15.878620147705078
      ],
      "min": [
        -21.69866371154785,
        6.106572151184082,
        -16.366493225097656
      ],
      "type": "VEC3"
    },
    {
      "bufferView": 2,
      "byteOffset": 1037856,
      "componentType": 5126,
      "count": 124,
      "max": [
        0.9071006774902344,
        0.9754290580749512,
        0.9839316010475159
      ],
      "min": [
        -0.8567277193069458,
        -0.1814313381910324,
        -0.9909914135932922
      ],
      "type": "VEC3"
    },
    {
      "bufferView": 3,
      "byteOffset": 689904,
      "componentType": 5126,
      "count": 124,
      "max": [
        0.9377889037132263,
        0.9193165302276611,
        0.9809299111366272,
        1.0
      ],
      "min": [
        -0.8550049662590027,
        -0.9740488529205322,
        -0.9745510220527649,
        -1.0
      ],
      "type": "VEC4"
    },
    {
      "bufferView": 1,
      "byteOffset": 1380816,
      "componentType": 5126,
      "count": 124,
      "max": [
        1.0,
        1.0
      ],
      "min": [
        0.0,
        0.0
      ],
      "type": "VEC2"
    },
    {
      "bufferView": 1,
      "byteOffset": 1381808,
      "componentType": 5126,
      "count": 124,
      "max": [
        1.0,
        1.0
      ],
      "min": [
        0.0,
        0.0
      ],
      "type": "VEC2"
    },
    {
      "bufferView": 1,
      "byteOffset": 1382800,
      "componentType": 5126,
      "count": 124,
      "max": [
        1.0,
        0.9070939421653748
      ],
      "min": [
        1.0,
        0.28194713592529297
      ],
      "type": "VEC2"
    },
    {
      "bufferView": 1,
      "byteOffset": 1383792,
      "componentType": 5126,
      "count": 124,
      "max": [
        1.0,
        1.0
      ],
      "min": [
        0.0,
        0.0
      ],
      "type": "VEC2"
    },
    {
      "bufferView": 0,
      "byteOffset": 896304,
      "componentType": 5125,
      "count": 186,
      "type": "SCALAR"
    },
    {
      "bufferView": 2,
      "byteOffset": 1039344,
      "componentType": 5126,
      "count": 96,
      "max": [
        15.644245147705078,
        33.26409912109375,
        11.06847095489502
      ],
      "min": [
        -19.55772590637207,
        7.444281578063965,
        -13.795723915100098
      ],
      "type": "VEC3"
    },
    {
      "bufferView": 2,
      "byteOffset": 1040496,
      "componentType": 5126,
      "count": 96,
      "max": [
        0.9920989871025085,
        0.9523683190345764,
        0.9524125456809998
      ],
      "min": [
        -0.9271144270896912,
        -0.09184345602989197,
        -0.9708297252655029
      ],
      "type": "VEC3"
    },
    {
      "bufferView": 3,
      "byteOffset": 691888,
      "componentType": 5126,
      "count": 96,
      "max": [
        0.9377889037132263,
        0.8852306008338928,
        0.8724864721298218,
        1.0
      ],
      "min": [
        -0.9377888441085815,
        -0.8968507051467896,
        -0.9705843329429626,
        -1.0
      ],
      "type": "VEC4"
    },
    {
      "bufferView": 1,
      "byteOffset": 1384784,
      "componentType": 5126,
      "count": 96,
      "max": [
        1.0,
        1.0
      ],
      "min": [
        0.0,
        0.0
      ],
      "type": "VEC2"
    },
    {
      "bufferView": 1,
      "byteOffset": 1385552,
      "componentType": 5126,
      "count": 96,
      "max": [
        1.0,
        1.0
      ],
      "min": [
        0.0,
        0.0
      ],
      "type": "VEC2"
    },
    {
      "bufferView": 1,
      "byteOffset": 1386320,
      "componentType": 5126,
      "count": 96,
      "max": [
        1.0,
        0.774773359298706
      ],
      "min": [
        1.0,
        0.29033389687538147
      ],
      "type": "VEC2"
    },
    {
      "bufferView": 1,
      "byteOffset": 1387088,
      "componentType": 5126,
      "count": 96,
      "max": [
        1.0,
        1.0
      ],
      "min": [
        0.0,
        0.0
      ],
      "type": "VEC2"
    },
    {
      "bufferView": 0,
      "byteOffset": 897048,
      "componentType": 5125,
      "count": 144,
      "type": "SCALAR"
    }
  ],
  "asset": {
    "extras": {
      "author": "loganghost115 (https://sketchfab.com/juancarlos474)",
      "license": "CC-BY-4.0 (http://creativecommons.org/licenses/by/4.0/)",
      "source": "https://sketchfab.com/3d-models/jungle-tree-4504c7640b2c42748bbed835328b5f25",
      "title": "Jungle Tree"
    },
    "generator": "Sketchfab-16.58.0",
    "version": "2.0"
  },
  "bufferViews": [
    {
      "buffer": 0,
      "byteLength": 897624,
      "name": "floatBufferViews",
      "target": 34963
    },
    {
      "buffer": 0,
      "byteLength": 1387856,
      "byteOffset": 897624,
      "byteStride": 8,
      "name": "floatBufferViews",
      "target": 34962
    },
    {
      "buffer": 0,
      "byteLength": 1041648,
      "byteOffset": 2285480,
      "byteStride": 12,
      "name": "floatBufferViews",
      "target": 34962
    },
    {
      "buffer": 0,
      "byteLength": 693424,
      "byteOffset": 3327128,
      "byteStride": 16,
      "name": "floatBufferViews",
      "target": 34962
    }
  ],
  "buffers": [
    {
      "byteLength": 4020552,
      "uri": "scene.bin"
    }
  ],
  "extensionsRequired": [
    "KHR_materials_pbrSpecularGlossiness"
  ],
  "extensionsUsed": [
    "KHR_materials_pbrSpecularGlossiness"
  ],
  "images": [
    {
      "uri": "textures/wmnkdi3lw_2K_Albedo_Mat_diffuse.png"
    },
    {
      "uri": "textures/wmnkdi3lw_2K_Albedo_Mat_specularGlossiness.png"
    },
    {
      "uri": "textures/wmnkdi3lw_2K_Albedo_Mat_normal.png"
    },
    {
      "uri": "textures/treebranch_Mat_diffuse.png"
    },
    {
      "uri": "textures/treebranch_Mat_specularGlossiness.png"
    },
    {
      "uri": "textures/treebranch_Mat_normal.png"
    },
    {
      "uri": "textures/treebranch_Mat_occlusion.png"
    }
  ],
  "materials": [
    {
      "doubleSided": true,
      "extensions": {
        "KHR_materials_pbrSpecularGlossiness": {
          "diffuseFactor": [
            1.0,
            1.0,
            1.0,
            1.0
          ],
          "glossinessFactor": 0.4,
          "specularFactor": [
            0.0,
            0.0,
            0.0
          ]
        }
      },
      "name": "treesell1__0"
    },
    {
      "doubleSided": true,
      "extensions": {
        "KHR_materials_pbrSpecularGlossiness": {
          "diffuseFactor": [
            1.0,
            1.0,
            1.0,
            1.0
          ],
          "diffuseTexture": {
            "index": 0
          },
          "glossinessFactor": 1.0,
          "specularFactor": [
            0.0,
            0.0,
            0.0
          ],
          "specularGlossinessTexture": {
            "index": 1
          }
        }
      },
      "name": "wmnkdi3lw_2K_Albedo_Mat",
      "normalTexture": {
        "index": 2
      }
    },
    {
      "alphaMode": "BLEND",
      "doubleSided": true,
      "extensions": {
        "KHR_materials_pbrSpecularGlossiness": {
          "diffuseFactor": [
            1.0,
            1.0,
            1.0,
            1.0
          ],
          "diffuseTexture": {
            "index": 3
          },
          "glossinessFactor": 1.0,
          "specularFactor": [
            0.0,
            0.0,
            0.0
          ],
          "specularGlossinessTexture": {
            "index": 4
          }
        }
      },
      "name": "treebranch_Mat",
      "normalTexture": {
        "index": 5
      },
      "occlusionTexture": {
        "index": 6
      }
    },
    {
      "alphaMode": "BLEND",
      "doubleSided": true,
      "extensions": {
        "KHR_materials_pbrSpecularGlossiness": {
          "diffuseFactor": [
            1.0,
            1.0,
            1.0,
            1.0
          ],
          "diffuseTexture": {
            "index": 3
          },
          "glossinessFactor": 1.0,
          "specularFactor": [
            0.0,
            0.0,
            0.0
          ],
          "specularGlossinessTexture": {
            "index": 4
          }
        }
      },
      "name": "treebranch_v2_Mat",
      "normalTexture": {
        "index": 5
      },
      "occlusionTexture": {
        "index": 6
      }
    },
    {
      "alphaMode": "BLEND",
      "doubleSided": true,
      "extensions": {
        "KHR_materials_pbrSpecularGlossiness": {
          "diffuseFactor": [
            1.0,
            1.0,
            1.0,
            1.0
          ],
          "diffuseTexture": {
            "index": 3
          },
          "glossinessFactor": 1.0,
          "specularFactor": [
            0.0,
            0.0,
            0.0
          ],
          "specularGlossinessTexture": {
            "index": 4
          }
        }
      },
      "name": "treebranch_v3_Mat",
      "normalTexture": {
        "index": 5
      },
      "occlusionTexture": {
        "index": 6
      }
    },
    {
      "alphaMode": "BLEND",
      "doubleSided": true,
      "extensions": {
        "KHR_materials_pbrSpecularGlossiness": {
          "diffuseFactor": [
            1.0,
            1.0,
            1.0,
            1.0
          ],
          "diffuseTexture": {
            "index": 3
          },
          "glossinessFactor": 0.042294850537622566,
          "specularFactor": [
            0.0,
            0.0,
            0.0
          ]
        }
      },
      "name": "treebranch_v4_Mat",
      "normalTexture": {
        "index": 5
      },
      "occlusionTexture": {
        "index": 6
      }
    }
  ],
  "meshes": [
    {
      "name": "treesell1__0",
      "primitives": [
        {
          "attributes": {
            "NORMAL": 1,
            "POSITION": 0,
            "TEXCOORD_0": 2,
            "TEXCOORD_1": 3
          },
          "indices": 4,
          "material": 0,
          "mode": 4
        }
      ]
    },
    {
      "name": "treesell1_wmnkdi3lw_2K_Albedo_Mat_0",
      "primitives": [
        {
          "attributes": {
            "NORMAL": 6,
            "POSITION": 5,
            "TANGENT": 7,
            "TEXCOORD_0": 8,
            "TEXCOORD_1": 9,
            "TEXCOORD_2": 10,
            "TEXCOORD_3": 11
          },
          "indices": 12,
          "material": 1,
          "mode": 4
        }
      ]
    },
    {
      "name": "treesell1_treebranch_Mat_0",
      "primitives": [
        {
          "attributes": {
            "NORMAL": 14,
            "POSITION": 13,
            "TANGENT": 15,
            "TEXCOORD_0": 16,
            "TEXCOORD_1": 17,
            "TEXCOORD_2": 18,
            "TEXCOORD_3": 19
          },
          "indices": 20,
          "material": 2,
          "mode": 4
        }
      ]
    },
    {
      "name": "treesell1_treebranch_v2_Mat_0",
      "primitives": [
        {
          "attributes": {
            "NORMAL": 22,
            "POSITION": 21,
            "TANGENT": 23,
            "TEXCOORD_0": 24,
            "TEXCOORD_1": 25,
            "TEXCOORD_2": 26,
            "TEXCOORD_3": 27
          },
          "indices": 28,
          "material": 3,
          "mode": 4
        }
      ]
    },
    {
      "name": "treesell1_treebranch_v3_Mat_0",
      "primitives": [
        {
          "attributes": {
            "NORMAL": 30,
            "POSITION": 29,
            "TANGENT": 31,
            "TEXCOORD_0": 32,
            "TEXCOORD_1": 33,
            "TEXCOORD_2": 34,
            "TEXCOORD_3": 35
          },
          "indices": 36,
          "material": 4,
          "mode": 4
        }
      ]
    },
    {
      "name": "treesell1_treebranch_v4_Mat_0",
      "primitives": [
        {
          "attributes": {
            "NORMAL": 38,
            "POSITION": 37,
            "TANGENT": 39,
            "TEXCOORD_0": 40,
            "TEXCOORD_1": 41,
            "TEXCOORD_2": 42,
            "TEXCOORD_3": 43
          },
          "indices": 44,
          "material": 5,
          "mode": 4
        }
      ]
    }
  ],
  "nodes": [
    {
      "children": [
        1
      ],
      "matrix": [
        -1.0,
        2.220446049250314e-16,
        -5.053215392444312e-16,
        0.0,
        -2.220446049250313e-16,
        -1.0,
        0.0,
        0.0,
        -5.053215392444312e-16,
        0.0,
        1.0,
        0.0,
        0.0,
        0.0,
        0.0,
        1.0
      ],
      "name": "Sketchfab_model"
    },
    {
      "children": [
        2
      ],
      "matrix": [
        0.009999999776482582,
        0.0,
        0.0,
        0.0,
        0.0,
        -0.009999999776482582,
        0.0,
        0.0,
        0.0,
        0.0,
        -0.009999999776482582,
        0.0,
        0.0,
        0.0,
        0.0,
        1.0
      ],
      "name": "22df729cbed445588659b8a649ae2206.fbx"
    },
    {
      "children": [
        3
      ],
      "name": "RootNode"
    },
    {
      "children": [
        4,
        5,
        6,
        7,
        8,
        9
      ],
      "name": "treesell1"
    },
    {
      "mesh": 0,
      "name": "treesell1__0"
    },
    {
      "mesh": 1,
      "name": "treesell1_wmnkdi3lw_2K_Albedo_Mat_0"
    },
    {
      "mesh": 2,
      "name": "treesell1_treebranch_Mat_0"
    },
    {
      "mesh": 3,
      "name": "treesell1_treebranch_v2_Mat_0"
    },
    {
      "mesh": 4,
      "name": "treesell1_treebranch_v3_Mat_0"
    },
    {
      "mesh": 5,
      "name": "treesell1_treebranch_v4_Mat_0"
    }
  ],
  "samplers": [
    {
      "magFilter": 9729,
      "minFilter": 9987,
      "wrapS": 10497,
      "wrapT": 10497
    }
  ],
  "scene": 0,
  "scenes": [
    {
      "name": "Sketchfab_Scene",
      "nodes": [
        0
      ]
    }
  ],
  "textures": [
    {
      "sampler": 0,
      "source": 0
    },
    {
      "sampler": 0,
      "source": 1
    },
    {
      "sampler": 0,
      "source": 2
    },
    {
      "sampler": 0,
      "source": 3
    },
    {
      "sampler": 0,
      "source": 4
    },
    {
      "sampler": 0,
      "source": 5
    },
    {
      "sampler": 0,
      "source": 6
    }
  ]
}
