{
  "accessors": [
    {
      "bufferView": 2,
      "componentType": 5126,
      "count": 38,
      "max": [
        3.046616792678833,
        0.5547487735748291,
        6.727270603179932
      ],
      "min": [
        -3.160046100616455,
        -0.28114986419677734,
        -6.721080303192139
      ],
      "type": "VEC3"
    },
    {
      "bufferView": 2,
      "byteOffset": 456,
      "componentType": 5126,
      "count": 38,
      "max": [
        0.9902384281158447,
        0.9959530830383301,
        0.9895813465118408
      ],
      "min": [
        -0.9877668619155884,
        -0.9955158829689026,
        -0.9895840883255005
      ],
      "type": "VEC3"
    },
    {
      "bufferView": 3,
      "componentType": 5126,
      "count": 38,
      "max": [
        0.9955184459686279,
        0.9902408123016357,
        0.16169317066669464,
        1.0
      ],
      "min": [
        -0.9959427118301392,
        -0.9877687096595764,
        -0.15584932267665863,
        1.0
      ],
      "type": "VEC4"
    },
    {
      "bufferView": 1,
      "componentType": 5126,
      "count": 38,
      "max": [
        0.980671763420105,
        0.6800497770309448
      ],
      "min": [
        0.5687134265899658,
        0.2377655804157257
      ],
      "type": "VEC2"
    },
    {
      "bufferView": 0,
      "componentType": 5125,
      "count": 132,
      "type": "SCALAR"
    },
    {
      "bufferView": 2,
      "byteOffset": 912,
      "componentType": 5126,
      "count": 76,
      "max": [
        2.98551869392395,
        3.0494461059570313,
        6.451700210571289
      ],
      "min": [
        -3.0816752910614014,
        1.7659133672714233,
        -6.45297384262085
      ],
      "type": "VEC3"
    },
    {
      "bufferView": 2,
      "byteOffset": 1824,
      "componentType": 5126,
      "count": 76,
      "max": [
        0.9995827674865723,
        0.9940279722213745,
        0.9938673973083496
      ],
      "min": [
        -0.9995827674865723,
        -0.9940280318260193,
        -0.9938673973083496
      ],
      "type": "VEC3"
    },
    {
      "bufferView": 3,
      "byteOffset": 608,
      "componentType": 5126,
      "count": 76,
      "max": [
        0.994225025177002,
        0.9989581108093262,
        0.9999980926513672,
        1.0
      ],
      "min": [
        -0.9942250847816467,
        -0.99913090467453,
        -0.1179775595664978,
        1.0
      ],
      "type": "VEC4"
    },
    {
      "bufferView": 1,
      "byteOffset": 304,
      "componentType": 5126,
      "count": 76,
      "max": [
        0.9880133867263794,
        0.9815921783447266
      ],
      "min": [
        0.5655186176300049,
        0.8597161769866943
      ],
      "type": "VEC2"
    },
    {
      "bufferView": 0,
      "byteOffset": 528,
      "componentType": 5125,
      "count": 264,
      "type": "SCALAR"
    },
    {
      "bufferView": 2,
      "byteOffset": 2736,
      "componentType": 5126,
      "count": 114,
      "max": [
        2.986778974533081,
        3.0301554203033447,
        6.6220173835754395
      ],
      "min": [
        -3.0602803230285645,
        -2.8540830612182617,
        -6.62220573425293
      ],
      "type": "VEC3"
    },
    {
      "bufferView": 2,
      "byteOffset": 4104,
      "componentType": 5126,
      "count": 114,
      "max": [
        0.9999834895133972,
        0.9959031939506531,
        0.999976634979248
      ],
      "min": [
        -0.9999855160713196,
        -0.9999849796295166,
        -0.9999765753746033
      ],
      "type": "VEC3"
    },
    {
      "bufferView": 3,
      "byteOffset": 1824,
      "componentType": 5126,
      "count": 114,
      "max": [
        0.9999815821647644,
        0.9999881982803345,
        0.9932884573936462,
        1.0
      ],
      "min": [
        -0.999987006187439,
        -0.9999882578849792,
        -0.9999979138374329,
        1.0
      ],
      "type": "VEC4"
    },
    {
      "bufferView": 1,
      "byteOffset": 912,
      "componentType": 5126,
      "count": 114,
      "max": [
        0.9427770972251892,
        0.9849717617034912
      ],
      "min": [
        0.013299375772476196,
        0.37874242663383484
      ],
      "type": "VEC2"
    },
    {
      "bufferView": 0,
      "byteOffset": 1584,
      "componentType": 5125,
      "count": 396,
      "type": "SCALAR"
    },
    {
      "bufferView": 2,
      "byteOffset": 5472,
      "componentType": 5126,
      "count": 651,
      "max": [
        1.1981465816497803,
        7.4716973304748535,
        2.894261598587036
      ],
      "min": [
        -1.1978256702423096,
        6.383642196655273,
        -2.895613193511963
      ],
      "type": "VEC3"
    },
    {
      "bufferView": 2,
      "byteOffset": 13284,
      "componentType": 5126,
      "count": 651,
      "max": [
        0.999255359172821,
        0.9999944567680359,
        1.0
      ],
      "min": [
        -0.999255359172821,
        -0.9999944567680359,
        -1.0
      ],
      "type": "VEC3"
    },
    {
      "bufferView": 3,
      "byteOffset": 3648,
      "componentType": 5126,
      "count": 651,
      "max": [
        0.9999958872795105,
        1.0,
        0.9833111763000488,
        1.0
      ],
      "min": [
        -0.9999958872795105,
        -1.0,
        -0.9998952150344849,
        1.0
      ],
      "type": "VEC4"
    },
    {
      "bufferView": 1,
      "byteOffset": 1824,
      "componentType": 5126,
      "count": 651,
      "max": [
        0.9879279136657715,
        0.681907594203949
      ],
      "min": [
        0.011130026541650295,
        0.008449092507362366
      ],
      "type": "VEC2"
    },
    {
      "bufferView": 0,
      "byteOffset": 3168,
      "componentType": 5125,
      "count": 2700,
      "type": "SCALAR"
    },
    {
      "bufferView": 2,
      "byteOffset": 21096,
      "componentType": 5126,
      "count": 998,
      "max": [
        1.6200255155563354,
        5.31680154800415,
        1.6834461688995361
      ],
      "min": [
        -1.6211931705474854,
        4.194112300872803,
        -1.6823418140411377
      ],
      "type": "VEC3"
    },
    {
      "bufferView": 2,
      "byteOffset": 33072,
      "componentType": 5126,
      "count": 998,
      "max": [
        0.9989871382713318,
        0.9996728897094727,
        0.9989874362945557
      ],
      "min": [
        -0.9989870190620422,
        -0.9996792078018188,
        -0.9989874362945557
      ],
      "type": "VEC3"
    },
    {
      "bufferView": 3,
      "byteOffset": 14064,
      "componentType": 5126,
      "count": 998,
      "max": [
        0.9999968409538269,
        0.9992324709892273,
        0.9999933838844299,
        1.0
      ],
      "min": [
        -0.9999937415122986,
        -0.9992236495018005,
        -0.9999933838844299,
        1.0
      ],
      "type": "VEC4"
    },
    {
      "bufferView": 1,
      "byteOffset": 7032,
      "componentType": 5126,
      "count": 998,
      "max": [
        0.7160093784332275,
        0.9916099905967712
      ],
      "min": [
        0.008434358984231949,
        0.012346625328063965
      ],
      "type": "VEC2"
    },
    {
      "bufferView": 0,
      "byteOffset": 13968,
      "componentType": 5125,
      "count": 3564,
      "type": "SCALAR"
    },
    {
      "bufferView": 2,
      "byteOffset": 45048,
      "componentType": 5126,
      "count": 651,
      "max": [
        1.1981465816497803,
        7.4716973304748535,
        2.894261598587036
      ],
      "min": [
        -1.1978256702423096,
        6.383642196655273,
        -2.895613193511963
      ],
      "type": "VEC3"
    },
    {
      "bufferView": 2,
      "byteOffset": 52860,
      "componentType": 5126,
      "count": 651,
      "max": [
        0.999255359172821,
        0.9999944567680359,
        1.0
      ],
      "min": [
        -0.999255359172821,
        -0.9999944567680359,
        -1.0
      ],
      "type": "VEC3"
    },
    {
      "bufferView": 3,
      "byteOffset": 30032,
      "componentType": 5126,
      "count": 651,
      "max": [
        0.9999958872795105,
        1.0,
        0.9833111763000488,
        1.0
      ],
      "min": [
        -0.9999958872795105,
        -1.0,
        -0.9998952150344849,
        1.0
      ],
      "type": "VEC4"
    },
    {
      "bufferView": 1,
      "byteOffset": 15016,
      "componentType": 5126,
      "count": 651,
      "max": [
        0.9879279136657715,
        0.681907594203949
      ],
      "min": [
        0.011130026541650295,
        0.008449092507362366
      ],
      "type": "VEC2"
    },
    {
      "bufferView": 0,
      "byteOffset": 28224,
      "componentType": 5125,
      "count": 2700,
      "type": "SCALAR"
    },
    {
      "bufferView": 2,
      "byteOffset": 60672,
      "componentType": 5126,
      "count": 998,
      "max": [
        1.6200255155563354,
        5.31680154800415,
        1.6834461688995361
      ],
      "min": [
        -1.6211931705474854,
        4.194112300872803,
        -1.6823418140411377
      ],
      "type": "VEC3"
    },
    {
      "bufferView": 2,
      "byteOffset": 72648,
      "componentType": 5126,
      "count": 998,
      "max": [
        0.9989871382713318,
        0.9996728897094727,
        0.9989874362945557
      ],
      "min": [
        -0.9989870190620422,
        -0.9996792078018188,
        -0.9989874362945557
      ],
      "type": "VEC3"
    },
    {
      "bufferView": 3,
      "byteOffset": 40448,
      "componentType": 5126,
      "count": 998,
      "max": [
        0.9999968409538269,
        0.9992324709892273,
        0.9999933838844299,
        1.0
      ],
      "min": [
        -0.9999937415122986,
        -0.9992236495018005,
        -0.9999933838844299,
        1.0
      ],
      "type": "VEC4"
    },
    {
      "bufferView": 1,
      "byteOffset": 20224,
      "componentType": 5126,
      "count": 998,
      "max": [
        0.7160093784332275,
        0.9916099905967712
      ],
      "min": [
        0.008434358984231949,
        0.012346625328063965
      ],
      "type": "VEC2"
    },
    {
      "bufferView": 0,
      "byteOffset": 39024,
      "componentType": 5125,
      "count": 3564,
      "type": "SCALAR"
    },
    {
      "bufferView": 2,
      "byteOffset": 84624,
      "componentType": 5126,
      "count": 998,
      "max": [
        1.6200255155563354,
        5.31680154800415,
        1.6834461688995361
      ],
      "min": [
        -1.6211931705474854,
        4.194112300872803,
        -1.6823418140411377
      ],
      "type": "VEC3"
    },
    {
      "bufferView": 2,
      "byteOffset": 96600,
      "componentType": 5126,
      "count": 998,
      "max": [
        0.9989871382713318,
        0.9996728897094727,
        0.9989874362945557
      ],
      "min": [
        -0.9989870190620422,
        -0.9996792078018188,
        -0.9989874362945557
      ],
      "type": "VEC3"
    },
    {
      "bufferView": 3,
      "byteOffset": 56416,
      "componentType": 5126,
      "count": 998,
      "max": [
        0.9999968409538269,
        0.9992324709892273,
        0.9999933838844299,
        1.0
      ],
      "min": [
        -0.9999937415122986,
        -0.9992236495018005,
        -0.9999933838844299,
        1.0
      ],
      "type": "VEC4"
    },
    {
      "bufferView": 1,
      "byteOffset": 28208,
      "componentType": 5126,
      "count": 998,
      "max": [
        0.7160093784332275,
        0.9916099905967712
      ],
      "min": [
        0.008434358984231949,
        0.012346625328063965
      ],
      "type": "VEC2"
    },
    {
      "bufferView": 0,
      "byteOffset": 53280,
      "componentType": 5125,
      "count": 3564,
      "type": "SCALAR"
    }
  ],
  "asset": {
    "extras": {
      "author": "Eugen S. (https://sketchfab.com/eugen.storozhuk)",
      "license": "CC-BY-NC-4.0 (http://creativecommons.org/licenses/by-nc/4.0/)",
      "source": "https://sketchfab.com/3d-models/wood-market-stall-fc0bcbdd77d24811980946118a5a0b10",
      "title": "Wood market stall"
    },
    "generator": "Sketchfab-12.68.0",
    "version": "2.0"
  },
  "bufferViews": [
    {
      "buffer": 0,
      "byteLength": 67536,
      "name": "floatBufferViews",
      "target": 34963
    },
    {
      "buffer": 0,
      "byteLength": 36192,
      "byteOffset": 67536,
      "byteStride": 8,
      "name": "floatBufferViews",
      "target": 34962
    },
    {
      "buffer": 0,
      "byteLength": 108576,
      "byteOffset": 103728,
      "byteStride": 12,
      "name": "floatBufferViews",
      "target": 34962
    },
    {
      "buffer": 0,
      "byteLength": 72384,
      "byteOffset": 212304,
      "byteStride": 16,
      "name": "floatBufferViews",
      "target": 34962
    }
  ],
  "buffers": [
    {
      "byteLength": 284688,
      "uri": "scene.bin"
    }
  ],
  "images": [
    {
      "uri": "textures/lambert2_baseColor.jpeg"
    },
    {
      "uri": "textures/lambert2_metallicRoughness.png"
    },
    {
      "uri": "textures/lambert2_normal.png"
    }
  ],
  "materials": [
    {
      "doubleSided": true,
      "name": "lambert2",
      "normalTexture": {
        "index": 2
      },
      "occlusionTexture": {
        "index": 1
      },
      "pbrMetallicRoughness": {
        "baseColorTexture": {
          "index": 0
        },
        "metallicFactor": 0.0,
        "metallicRoughnessTexture": {
          "index": 1
        }
      }
    }
  ],
  "meshes": [
    {
      "name": "Table_2_lp_lambert2_0",
      "primitives": [
        {
          "attributes": {
            "NORMAL": 1,
            "POSITION": 0,
            "TANGENT": 2,
            "TEXCOORD_0": 3
          },
          "indices": 4,
          "material": 0,
          "mode": 4
        }
      ]
    },
    {
      "name": "Table_3_lp_lambert2_0",
      "primitives": [
        {
          "attributes": {
            "NORMAL": 6,
            "POSITION": 5,
            "TANGENT": 7,
            "TEXCOORD_0": 8
          },
          "indices": 9,
          "material": 0,
          "mode": 4
        }
      ]
    },
    {
      "name": "Table_1_lp_lambert2_0",
      "primitives": [
        {
          "attributes": {
            "NORMAL": 11,
            "POSITION": 10,
            "TANGENT": 12,
            "TEXCOORD_0": 13
          },
          "indices": 14,
          "material": 0,
          "mode": 4
        }
      ]
    },
    {
      "name": "box_l3_lp1_lambert2_0",
      "primitives": [
        {
          "attributes": {
            "NORMAL": 16,
            "POSITION": 15,
            "TANGENT": 17,
            "TEXCOORD_0": 18
          },
          "indices": 19,
          "material": 0,
          "mode": 4
        }
      ]
    },
    {
      "name": "box_s6_lp1_lambert2_0",
      "primitives": [
        {
          "attributes": {
            "NORMAL": 21,
            "POSITION": 20,
            "TANGENT": 22,
            "TEXCOORD_0": 23
          },
          "indices": 24,
          "material": 0,
          "mode": 4
        }
      ]
    },
    {
      "name": "box_l3_lp2_lambert2_0",
      "primitives": [
        {
          "attributes": {
            "NORMAL": 26,
            "POSITION": 25,
            "TANGENT": 27,
            "TEXCOORD_0": 28
          },
          "indices": 29,
          "material": 0,
          "mode": 4
        }
      ]
    },
    {
      "name": "box_s6_lp2_lambert2_0",
      "primitives": [
        {
          "attributes": {
            "NORMAL": 31,
            "POSITION": 30,
            "TANGENT": 32,
            "TEXCOORD_0": 33
          },
          "indices": 34,
          "material": 0,
          "mode": 4
        }
      ]
    },
    {
      "name": "box_s6_lp3_lambert2_0",
      "primitives": [
        {
          "attributes": {
            "NORMAL": 36,
            "POSITION": 35,
            "TANGENT": 37,
            "TEXCOORD_0": 38
          },
          "indices": 39,
          "material": 0,
          "mode": 4
        }
      ]
    }
  ],
  "nodes": [
    {
      "children": [
        1
      ],
      "matrix": [
        1.0,
        0.0,
        0.0,
        0.0,
        0.0,
        2.220446049250313e-16,
        -1.0,
        0.0,
        0.0,
        1.0,
        2.220446049250313e-16,
        0.0,
        0.0,
        0.0,
        0.0,
        1.0
      ],
      "name": "Sketchfab_model"
    },
    {
      "children": [
        2
      ],
      "matrix": [
        1.0,
        0.0,
        0.0,
        0.0,
        0.0,
        0.0,
        1.0,
        0.0,
        0.0,
        -1.0,
        0.0,
        0.0,
        0.0,
        0.0,
        0.0,
        1.0
      ],
      "name": "3f39301f7a0948c6a416c9a2ffd77c16.fbx"
    },
    {
      "children": [
        3,
        5,
        7,
        9,
        11,
        13,
        15,
        17
      ],
      "name": "RootNode"
    },
    {
      "children": [
        4
      ],
      "matrix": [
        1.0,
        0.0,
        0.0,
        0.0,
        0.0,
        1.0,
        0.0,
        0.0,
        0.0,
        0.0,
        1.0,
        0.0,
        0.0,
        1.8026080131530762,
        0.0,
        1.0
      ],
      "name": "Table_2_lp"
    },
    {
      "mesh": 0,
      "name": "Table_2_lp_lambert2_0"
    },
    {
      "children": [
        6
      ],
      "name": "Table_3_lp"
    },
    {
      "mesh": 1,
      "name": "Table_3_lp_lambert2_0"
    },
    {
      "children": [
        8
      ],
      "name": "Table_1_lp"
    },
    {
      "mesh": 2,
      "name": "Table_1_lp_lambert2_0"
    },
    {
      "children": [
        10
      ],
      "matrix": [
        0.995430470617657,
        -0.09487579633051926,
        -0.010805620600394892,
        0.0,
        0.09488133573275256,
        0.9954885896531254,
        0.0,
        0.0,
        0.01075687201181387,
        -0.001025251715986815,
        0.9999416175774666,
        0.0,
        -2.2377357482910156,
        -4.139960289001465,
        3.2507646083831787,
        1.0
      ],
      "name": "box_l3_lp1"
    },
    {
      "mesh": 3,
      "name": "box_l3_lp1_lambert2_0"
    },
    {
      "children": [
        12
      ],
      "matrix": [
        -0.02033499593283761,
        0.0019381553905114266,
        -0.9407198168255114,
        0.0,
        0.09883822727978145,
        1.0370040294926381,
        0.0,
        0.0,
        0.93647584371037,
        -0.0892567527707256,
        -0.0204271511940919,
        0.0,
        0.6693050861358643,
        -2.4030632972717285,
        -2.0849902629852295,
        1.0
      ],
      "name": "box_s6_lp1"
    },
    {
      "mesh": 4,
      "name": "box_s6_lp1_lambert2_0"
    },
    {
      "children": [
        14
      ],
      "matrix": [
        0.0,
        0.0,
        0.9608393311500549,
        0.0,
        0.09116571916408199,
        0.9565045906498205,
        0.0,
        0.0,
        -0.9565045906498205,
        0.09116571916408199,
        0.0,
        0.0,
        -0.6443744897842407,
        -4.036573886871338,
        -5.218477725982666,
        1.0
      ],
      "name": "box_l3_lp2"
    },
    {
      "mesh": 5,
      "name": "box_l3_lp2_lambert2_0"
    },
    {
      "children": [
        16
      ],
      "matrix": [
        1.4625169975802249e-15,
        -6.5290937391974325e-18,
        0.940941572189331,
        0.0,
        0.09883822727972595,
        1.0370040294926435,
        -1.4456541266999434e-16,
        0.0,
        -0.9366965986447516,
        0.08927779321580058,
        1.4625169975802249e-15,
        0.0,
        0.7667350172996521,
        -2.4123494625091553,
        1.2254971265792847,
        1.0
      ],
      "name": "box_s6_lp2"
    },
    {
      "mesh": 6,
      "name": "box_s6_lp2_lambert2_0"
    },
    {
      "children": [
        18
      ],
      "matrix": [
        0.9366202183514294,
        -0.08955335753239205,
        0.00968529834989365,
        0.0,
        0.0991238690602414,
        1.0369740254425233,
        0.002383588856252818,
        0.0,
        -0.009846237818183954,
        -0.0012215310495029205,
        0.940889261144399,
        0.0,
        0.7360208630561829,
        -2.4093148708343506,
        4.550328254699707,
        1.0
      ],
      "name": "box_s6_lp3"
    },
    {
      "mesh": 7,
      "name": "box_s6_lp3_lambert2_0"
    }
  ],
  "samplers": [
    {
      "magFilter": 9729,
      "minFilter": 9987,
      "wrapS": 10497,
      "wrapT": 10497
    }
  ],
  "scene": 0,
  "scenes": [
    {
      "name": "Sketchfab_Scene",
      "nodes": [
        0
      ]
    }
  ],
  "textures": [
    {
      "sampler": 0,
      "source": 0
    },
    {
      "sampler": 0,
      "source": 1
    },
    {
      "sampler": 0,
      "source": 2
    }
  ]
}
