{
  "accessors": [
    {
      "bufferView": 2,
      "componentType": 5126,
      "count": 122,
      "max": [
        1.2623659372329712,
        0.9393706321716309,
        0.10702680796384811
      ],
      "min": [
        -1.2623659372329712,
        -0.9393706321716309,
        -0.10702680796384811
      ],
      "type": "VEC3"
    },
    {
      "bufferView": 2,
      "byteOffset": 1464,
      "componentType": 5126,
      "count": 122,
      "max": [
        1.299662955034364e-07,
        0.0,
        1.0
      ],
      "min": [
        -1.5698478250669723e-07,
        0.0,
        -1.0
      ],
      "type": "VEC3"
    },
    {
      "bufferView": 1,
      "componentType": 5126,
      "count": 122,
      "max": [
        0.1985863745212555,
        0.9624313116073608
      ],
      "min": [
        0.13144002854824066,
        0.9403809309005737
      ],
      "type": "VEC2"
    },
    {
      "bufferView": 0,
      "componentType": 5125,
      "count": 384,
      "type": "SCALAR"
    },
    {
      "bufferView": 2,
      "byteOffset": 2928,
      "componentType": 5126,
      "count": 326,
      "max": [
        1.2872827053070068,
        0.9643274545669556,
        0.10702680796384811
      ],
      "min": [
        -1.2872827053070068,
        -0.9643274545669556,
        -0.10702680796384811
      ],
      "type": "VEC3"
    },
    {
      "bufferView": 2,
      "byteOffset": 6840,
      "componentType": 5126,
      "count": 326,
      "max": [
        0.999789297580719,
        0.9999573826789856,
        1.0
      ],
      "min": [
        -0.9998452067375183,
        -0.9999573826789856,
        -1.0
      ],
      "type": "VEC3"
    },
    {
      "bufferView": 1,
      "byteOffset": 976,
      "componentType": 5126,
      "count": 326,
      "max": [
        0.19881029427051544,
        0.9839117527008057
      ],
      "min": [
        0.13122712075710297,
        0.8955711126327515
      ],
      "type": "VEC2"
    },
    {
      "bufferView": 0,
      "byteOffset": 1536,
      "componentType": 5125,
      "count": 936,
      "type": "SCALAR"
    },
    {
      "bufferView": 2,
      "byteOffset": 10752,
      "componentType": 5126,
      "count": 134,
      "max": [
        1.0,
        1.0,
        1.0
      ],
      "min": [
        -1.0,
        -1.0,
        -3.8185248374938965
      ],
      "type": "VEC3"
    },
    {
      "bufferView": 2,
      "byteOffset": 12360,
      "componentType": 5126,
      "count": 134,
      "max": [
        1.0,
        1.0,
        0.8434863090515137
      ],
      "min": [
        -1.0,
        -1.0,
        -0.8434863090515137
      ],
      "type": "VEC3"
    },
    {
      "bufferView": 1,
      "byteOffset": 3584,
      "componentType": 5126,
      "count": 134,
      "max": [
        0.3809630870819092,
        0.9870557188987732
      ],
      "min": [
        0.2870056629180908,
        0.8940379023551941
      ],
      "type": "VEC2"
    },
    {
      "bufferView": 0,
      "byteOffset": 5280,
      "componentType": 5125,
      "count": 342,
      "type": "SCALAR"
    },
    {
      "bufferView": 2,
      "byteOffset": 13968,
      "componentType": 5126,
      "count": 138,
      "max": [
        1.0,
        1.0,
        2.604957103729248
      ],
      "min": [
        -0.9607347846031189,
        -1.0077556371688843,
        -3.294384241104126
      ],
      "type": "VEC3"
    },
    {
      "bufferView": 2,
      "byteOffset": 15624,
      "componentType": 5126,
      "count": 138,
      "max": [
        0.9997363090515137,
        0.9999964833259583,
        0.7169367074966431
      ],
      "min": [
        -0.9997835755348206,
        -0.9991639256477356,
        -0.7270186543464661
      ],
      "type": "VEC3"
    },
    {
      "bufferView": 1,
      "byteOffset": 4656,
      "componentType": 5126,
      "count": 138,
      "max": [
        0.3809630870819092,
        0.9870557188987732
      ],
      "min": [
        0.2870056629180908,
        0.8940379023551941
      ],
      "type": "VEC2"
    },
    {
      "bufferView": 0,
      "byteOffset": 6648,
      "componentType": 5125,
      "count": 372,
      "type": "SCALAR"
    },
    {
      "bufferView": 2,
      "byteOffset": 17280,
      "componentType": 5126,
      "count": 30,
      "max": [
        1.0,
        1.0455763339996338,
        0.08294210582971573
      ],
      "min": [
        -1.0,
        -0.958126962184906,
        -0.0769038125872612
      ],
      "type": "VEC3"
    },
    {
      "bufferView": 2,
      "byteOffset": 17640,
      "componentType": 5126,
      "count": 30,
      "max": [
        0.13689735531806946,
        0.030049927532672882,
        0.9998836517333984
      ],
      "min": [
        -0.13311336934566498,
        -0.21093705296516418,
        0.9683937430381775
      ],
      "type": "VEC3"
    },
    {
      "bufferView": 1,
      "byteOffset": 5760,
      "componentType": 5126,
      "count": 30,
      "max": [
        0.1571306586265564,
        0.1661638617515564
      ],
      "min": [
        0.04065418243408203,
        0.049687325954437256
      ],
      "type": "VEC2"
    },
    {
      "bufferView": 0,
      "byteOffset": 8136,
      "componentType": 5125,
      "count": 120,
      "type": "SCALAR"
    },
    {
      "bufferView": 2,
      "byteOffset": 18000,
      "componentType": 5126,
      "count": 30,
      "max": [
        1.0,
        0.7947625517845154,
        0.08622735738754272
      ],
      "min": [
        -1.0,
        -1.0,
        -0.11189966648817062
      ],
      "type": "VEC3"
    },
    {
      "bufferView": 2,
      "byteOffset": 18360,
      "componentType": 5126,
      "count": 30,
      "max": [
        0.20124551653862,
        0.2536451518535614,
        0.9999876618385315
      ],
      "min": [
        -0.2610659897327423,
        -0.03974262252449989,
        0.9314015507698059
      ],
      "type": "VEC3"
    },
    {
      "bufferView": 1,
      "byteOffset": 6000,
      "componentType": 5126,
      "count": 30,
      "max": [
        0.30614662170410156,
        0.17245438694953918
      ],
      "min": [
        0.18201063573360443,
        0.048318296670913696
      ],
      "type": "VEC2"
    },
    {
      "bufferView": 0,
      "byteOffset": 8616,
      "componentType": 5125,
      "count": 120,
      "type": "SCALAR"
    },
    {
      "bufferView": 2,
      "byteOffset": 18720,
      "componentType": 5126,
      "count": 136,
      "max": [
        1.0,
        1.0,
        1.0
      ],
      "min": [
        -1.0,
        -1.0,
        -1.0
      ],
      "type": "VEC3"
    },
    {
      "bufferView": 2,
      "byteOffset": 20352,
      "componentType": 5126,
      "count": 136,
      "max": [
        1.0,
        1.0,
        1.0
      ],
      "min": [
        -1.0,
        -1.0,
        -1.0
      ],
      "type": "VEC3"
    },
    {
      "bufferView": 1,
      "byteOffset": 6240,
      "componentType": 5126,
      "count": 136,
      "max": [
        1.0,
        0.8829311728477478
      ],
      "min": [
        0.18505343794822693,
        0.2248896360397339
      ],
      "type": "VEC2"
    },
    {
      "bufferView": 0,
      "byteOffset": 9096,
      "componentType": 5125,
      "count": 372,
      "type": "SCALAR"
    },
    {
      "bufferView": 2,
      "byteOffset": 21984,
      "componentType": 5126,
      "count": 136,
      "max": [
        1.0,
        1.0,
        1.0
      ],
      "min": [
        -1.0,
        -1.0,
        -1.0
      ],
      "type": "VEC3"
    },
    {
      "bufferView": 2,
      "byteOffset": 23616,
      "componentType": 5126,
      "count": 136,
      "max": [
        1.0,
        1.0,
        1.0
      ],
      "min": [
        -1.0,
        -1.0,
        -1.0
      ],
      "type": "VEC3"
    },
    {
      "bufferView": 1,
      "byteOffset": 7328,
      "componentType": 5126,
      "count": 136,
      "max": [
        1.0,
        0.8829311728477478
      ],
      "min": [
        0.0,
        0.0
      ],
      "type": "VEC2"
    },
    {
      "bufferView": 0,
      "byteOffset": 10584,
      "componentType": 5125,
      "count": 372,
      "type": "SCALAR"
    },
    {
      "bufferView": 2,
      "byteOffset": 25248,
      "componentType": 5126,
      "count": 123,
      "max": [
        1.2623659372329712,
        0.9393706321716309,
        0.10702680796384811
      ],
      "min": [
        -1.2623659372329712,
        -0.9393706321716309,
        -0.10702680796384811
      ],
      "type": "VEC3"
    },
    {
      "bufferView": 2,
      "byteOffset": 26724,
      "componentType": 5126,
      "count": 123,
      "max": [
        1.299662955034364e-07,
        0.0,
        1.0
      ],
      "min": [
        -1.5698478250669723e-07,
        0.0,
        -1.0
      ],
      "type": "VEC3"
    },
    {
      "bufferView": 1,
      "byteOffset": 8416,
      "componentType": 5126,
      "count": 123,
      "max": [
        0.09640847146511078,
        0.9633355736732483
      ],
      "min": [
        0.026586193591356277,
        0.9404064416885376
      ],
      "type": "VEC2"
    },
    {
      "bufferView": 0,
      "byteOffset": 12072,
      "componentType": 5125,
      "count": 384,
      "type": "SCALAR"
    },
    {
      "bufferView": 2,
      "byteOffset": 28200,
      "componentType": 5126,
      "count": 326,
      "max": [
        1.2872827053070068,
        0.9643274545669556,
        0.10702680796384811
      ],
      "min": [
        -1.2872827053070068,
        -0.9643274545669556,
        -0.10702680796384811
      ],
      "type": "VEC3"
    },
    {
      "bufferView": 2,
      "byteOffset": 32112,
      "componentType": 5126,
      "count": 326,
      "max": [
        0.999789297580719,
        0.9999573826789856,
        1.0
      ],
      "min": [
        -0.9998452067375183,
        -0.9999573826789856,
        -1.0
      ],
      "type": "VEC3"
    },
    {
      "bufferView": 1,
      "byteOffset": 9400,
      "componentType": 5126,
      "count": 326,
      "max": [
        0.09664133191108704,
        0.9856720566749573
      ],
      "min": [
        0.026364803314208984,
        0.8938108682632446
      ],
      "type": "VEC2"
    },
    {
      "bufferView": 0,
      "byteOffset": 13608,
      "componentType": 5125,
      "count": 936,
      "type": "SCALAR"
    }
  ],
  "asset": {
    "extras": {
      "author": "Gabriel Gauthier (https://sketchfab.com/Gab629)",
      "license": "CC-BY-4.0 (http://creativecommons.org/licenses/by/4.0/)",
      "source": "https://sketchfab.com/3d-models/sandwich-db8a57a8e20a47778f660a3103c51486",
      "title": "Sandwich"
    },
    "generator": "Sketchfab-15.26.0",
    "version": "2.0"
  },
  "bufferViews": [
    {
      "buffer": 0,
      "byteLength": 17352,
      "name": "floatBufferViews",
      "target": 34963
    },
    {
      "buffer": 0,
      "byteLength": 12008,
      "byteOffset": 17352,
      "byteStride": 8,
      "name": "floatBufferViews",
      "target": 34962
    },
    {
      "buffer": 0,
      "byteLength": 36024,
      "byteOffset": 29360,
      "byteStride": 12,
      "name": "floatBufferViews",
      "target": 34962
    }
  ],
  "buffers": [
    {
      "byteLength": 65384,
      "uri": "scene.bin"
    }
  ],
  "extensionsRequired": [
    "KHR_materials_pbrSpecularGlossiness"
  ],
  "extensionsUsed": [
    "KHR_materials_pbrSpecularGlossiness",
    "KHR_texture_transform"
  ],
  "images": [
    {
      "uri": "textures/Pain_diffuse.png"
    }
  ],
  "materials": [
    {
      "doubleSided": true,
      "extensions": {
        "KHR_materials_pbrSpecularGlossiness": {
          "diffuseFactor": [
            1.0,
            1.0,
            1.0,
            1.0
          ],
          "diffuseTexture": {
            "extensions": {
              "KHR_texture_transform": {
                "scale": [
                  1.000214506052654,
                  1.000214506052654
                ]
              }
            },
            "index": 0
          },
          "glossinessFactor": 0.10209554924357864,
          "specularFactor": [
            0.14249461697580212,
            0.14249461697580212,
            0.14249461697580212
          ]
        }
      },
      "name": "Pain"
    },
    {
      "doubleSided": true,
      "extensions": {
        "KHR_materials_pbrSpecularGlossiness": {
          "diffuseFactor": [
            0.5190816593712904,
            0.14016117689990554,
            0.0,
            1.0
          ],
          "glossinessFactor": 0.048515653209836376,
          "specularFactor": [
            0.0,
            0.0,
            0.0
          ]
        }
      },
      "name": "Croute"
    },
    {
      "doubleSided": true,
      "extensions": {
        "KHR_materials_pbrSpecularGlossiness": {
          "diffuseFactor": [
            0.8,
            0.179695,
            0.119189,
            1.0
          ],
          "glossinessFactor": 0.06869274836257273,
          "specularFactor": [
            0.0,
            0.0,
            0.0
          ]
        }
      },
      "name": "Jambon"
    },
    {
      "doubleSided": true,
      "extensions": {
        "KHR_materials_pbrSpecularGlossiness": {
          "diffuseFactor": [
            0.08908634894019601,
            0.290387141204943,
            0.0,
            1.0
          ],
          "glossinessFactor": 0.05159321602064795,
          "specularFactor": [
            0.0,
            0.0,
            0.0
          ]
        }
      },
      "name": "salade"
    },
    {
      "doubleSided": true,
      "extensions": {
        "KHR_materials_pbrSpecularGlossiness": {
          "diffuseFactor": [
            1.0,
            1.0,
            1.0,
            1.0
          ],
          "diffuseTexture": {
            "index": 0
          },
          "glossinessFactor": 0.04297915974247659,
          "specularFactor": [
            0.0,
            0.0,
            0.0
          ]
        }
      },
      "name": "tomates"
    }
  ],
  "meshes": [
    {
      "name": "Cube_Pain_0",
      "primitives": [
        {
          "attributes": {
            "NORMAL": 1,
            "POSITION": 0,
            "TEXCOORD_0": 2
          },
          "indices": 3,
          "material": 0,
          "mode": 4
        }
      ]
    },
    {
      "name": "Cube_Croute_0",
      "primitives": [
        {
          "attributes": {
            "NORMAL": 5,
            "POSITION": 4,
            "TEXCOORD_0": 6
          },
          "indices": 7,
          "material": 1,
          "mode": 4
        }
      ]
    },
    {
      "name": "Cylinder_Jambon_0",
      "primitives": [
        {
          "attributes": {
            "NORMAL": 9,
            "POSITION": 8,
            "TEXCOORD_0": 10
          },
          "indices": 11,
          "material": 2,
          "mode": 4
        }
      ]
    },
    {
      "name": "Cylinder.001_Jambon_0",
      "primitives": [
        {
          "attributes": {
            "NORMAL": 13,
            "POSITION": 12,
            "TEXCOORD_0": 14
          },
          "indices": 15,
          "material": 2,
          "mode": 4
        }
      ]
    },
    {
      "name": "Plane_salade_0",
      "primitives": [
        {
          "attributes": {
            "NORMAL": 17,
            "POSITION": 16,
            "TEXCOORD_0": 18
          },
          "indices": 19,
          "material": 3,
          "mode": 4
        }
      ]
    },
    {
      "name": "Plane.001_salade_0",
      "primitives": [
        {
          "attributes": {
            "NORMAL": 21,
            "POSITION": 20,
            "TEXCOORD_0": 22
          },
          "indices": 23,
          "material": 3,
          "mode": 4
        }
      ]
    },
    {
      "name": "Cylinder.002_tomates_0",
      "primitives": [
        {
          "attributes": {
            "NORMAL": 25,
            "POSITION": 24,
            "TEXCOORD_0": 26
          },
          "indices": 27,
          "material": 4,
          "mode": 4
        }
      ]
    },
    {
      "name": "Cylinder.003_tomates_0",
      "primitives": [
        {
          "attributes": {
            "NORMAL": 29,
            "POSITION": 28,
            "TEXCOORD_0": 30
          },
          "indices": 31,
          "material": 4,
          "mode": 4
        }
      ]
    },
    {
      "name": "Cube.001_Pain_0",
      "primitives": [
        {
          "attributes": {
            "NORMAL": 33,
            "POSITION": 32,
            "TEXCOORD_0": 34
          },
          "indices": 35,
          "material": 0,
          "mode": 4
        }
      ]
    },
    {
      "name": "Cube.001_Croute_0",
      "primitives": [
        {
          "attributes": {
            "NORMAL": 37,
            "POSITION": 36,
            "TEXCOORD_0": 38
          },
          "indices": 39,
          "material": 1,
          "mode": 4
        }
      ]
    }
  ],
  "nodes": [
    {
      "children": [
        1
      ],
      "matrix": [
        1.0,
        0.0,
        0.0,
        0.0,
        0.0,
        2.220446049250313e-16,
        -1.0,
        0.0,
        0.0,
        1.0,
        2.220446049250313e-16,
        0.0,
        0.0,
        0.0,
        0.0,
        1.0
      ],
      "name": "Sketchfab_model"
    },
    {
      "children": [
        2
      ],
      "matrix": [
        0.009999999776482582,
        0.0,
        0.0,
        0.0,
        0.0,
        0.0,
        0.009999999776482582,
        0.0,
        0.0,
        -0.009999999776482582,
        0.0,
        0.0,
        0.0,
        0.0,
        0.0,
        1.0
      ],
      "name": "28d093e71da8406e9bb59f6f447bf8ee.fbx"
    },
    {
      "children": [
        3,
        6,
        8,
        10,
        12,
        14,
        16,
        18
      ],
      "name": "RootNode"
    },
    {
      "children": [
        4,
        5
      ],
      "matrix": [
        100.0,
        0.0,
        0.0,
        0.0,
        0.0,
        -1.629206793918314e-05,
        -99.99999999999868,
        0.0,
        0.0,
        99.99999999999868,
        -1.629206793918314e-05,
        0.0,
        0.0,
        0.0,
        0.0,
        1.0
      ],
      "name": "Cube"
    },
    {
      "mesh": 0,
      "name": "Cube_Pain_0"
    },
    {
      "mesh": 1,
      "name": "Cube_Croute_0"
    },
    {
      "children": [
        7
      ],
      "matrix": [
        100.0,
        0.0,
        0.0,
        0.0,
        0.0,
        -1.629206793918314e-05,
        -99.99999999999868,
        0.0,
        0.0,
        1.9062638282775628,
        -3.1056979800305807e-07,
        0.0,
        47.11343765258789,
        13.848296165466309,
        -1.3916895389556885,
        1.0
      ],
      "name": "Cylinder"
    },
    {
      "mesh": 2,
      "name": "Cylinder_Jambon_0"
    },
    {
      "children": [
        9
      ],
      "matrix": [
        90.5377994141041,
        1.8334799373187494e-06,
        42.460650928258836,
        0.0,
        42.460650928258595,
        -1.5432197786324764e-05,
        -90.53779941410292,
        0.0,
        9.326623104490769e-08,
        1.9062638282775646,
        -2.8118306079435556e-07,
        0.0,
        -45.12919235229492,
        16.39309310913086,
        0.6409916877746582,
        1.0
      ],
      "name": "Cylinder.001"
    },
    {
      "mesh": 3,
      "name": "Cylinder.001_Jambon_0"
    },
    {
      "children": [
        11
      ],
      "matrix": [
        7.692118418642049,
        0.0,
        -99.70372530709449,
        0.0,
        -99.70372530704489,
        -9.973857827858799e-05,
        -7.69211841863823,
        0.0,
        -9.944306292863914e-05,
        99.99999999995026,
        -7.672008384140838e-06,
        0.0,
        52.85866165161133,
        21.313594818115234,
        -1.9574731588363647,
        1.0
      ],
      "name": "Plane"
    },
    {
      "mesh": 4,
      "name": "Plane_salade_0"
    },
    {
      "children": [
        13
      ],
      "matrix": [
        7.692118418642049,
        0.0,
        -99.70372530709449,
        0.0,
        -99.70372530704489,
        -9.973857827858799e-05,
        -7.69211841863823,
        0.0,
        -9.944306292863914e-05,
        99.99999999995026,
        -7.672008384140838e-06,
        0.0,
        -54.4544677734375,
        21.313594818115234,
        -1.9574731588363647,
        1.0
      ],
      "name": "Plane.001"
    },
    {
      "mesh": 5,
      "name": "Plane.001_salade_0"
    },
    {
      "children": [
        15
      ],
      "matrix": [
        87.71852140401941,
        -3.667173224775694,
        -2.3121752329002804e-07,
        -0.0,
        -3.913129716868775e-07,
        -3.824640619317063e-06,
        -87.79514312744134,
        -0.0,
        -0.12483791350865944,
        -2.9861139676084707,
        1.306412073108748e-07,
        -0.0,
        66.07768249511719,
        26.041879653930664,
        11.429760932922363,
        1.0
      ],
      "name": "Cylinder.002"
    },
    {
      "mesh": 6,
      "name": "Cylinder.002_tomates_0"
    },
    {
      "children": [
        17
      ],
      "matrix": [
        87.78052802209928,
        1.6018916721691947,
        1.8314652050396822e-07,
        -0.0,
        6.217657552887154e-08,
        6.630587145226672e-06,
        -87.79514312744115,
        -0.0,
        0.054531597435715215,
        -2.9882247969449476,
        -2.2564225863743648e-07,
        -0.0,
        -56.68120574951172,
        29.626018524169922,
        2.6021952629089355,
        1.0
      ],
      "name": "Cylinder.003"
    },
    {
      "mesh": 7,
      "name": "Cylinder.003_tomates_0"
    },
    {
      "children": [
        19,
        20
      ],
      "matrix": [
        100.0,
        0.0,
        0.0,
        0.0,
        0.0,
        -1.629206793918314e-05,
        -99.99999999999868,
        0.0,
        0.0,
        99.99999999999868,
        -1.629206793918314e-05,
        0.0,
        0.0,
        41.75117492675781,
        0.0,
        1.0
      ],
      "name": "Cube.001"
    },
    {
      "mesh": 8,
      "name": "Cube.001_Pain_0"
    },
    {
      "mesh": 9,
      "name": "Cube.001_Croute_0"
    }
  ],
  "samplers": [
    {
      "magFilter": 9729,
      "minFilter": 9987,
      "wrapS": 10497,
      "wrapT": 10497
    }
  ],
  "scene": 0,
  "scenes": [
    {
      "name": "Sketchfab_Scene",
      "nodes": [
        0
      ]
    }
  ],
  "textures": [
    {
      "sampler": 0,
      "source": 0
    }
  ]
}
