{
  "accessors": [
    {
      "bufferView": 2,
      "componentType": 5126,
      "count": 32500,
      "max": [
        4.091012954711914,
        11.600799560546875,
        5.079078674316406
      ],
      "min": [
        -4.096128463745117,
        0.0024509429931640625,
        -3.040660858154297
      ],
      "type": "VEC3"
    },
    {
      "bufferView": 2,
      "byteOffset": 390000,
      "componentType": 5126,
      "count": 32500,
      "max": [
        0.9997040033340454,
        0.999992847442627,
        0.9999988675117493
      ],
      "min": [
        -0.999936044216156,
        -0.9999920725822449,
        -0.9999535083770752
      ],
      "type": "VEC3"
    },
    {
      "bufferView": 1,
      "componentType": 5126,
      "count": 32500,
      "max": [
        0.9947235584259033,
        0.9931942820549011
      ],
      "min": [
        0.009450972080230713,
        0.006946384906768799
      ],
      "type": "VEC2"
    },
    {
      "bufferView": 1,
      "byteOffset": 260000,
      "componentType": 5126,
      "count": 32500,
      "max": [
        0.9947235584259033,
        0.9931942820549011
      ],
      "min": [
        0.009450972080230713,
        0.006946384906768799
      ],
      "type": "VEC2"
    },
    {
      "bufferView": 1,
      "byteOffset": 520000,
      "componentType": 5126,
      "count": 32500,
      "max": [
        0.9947235584259033,
        0.9931942820549011
      ],
      "min": [
        0.009450972080230713,
        0.006946384906768799
      ],
      "type": "VEC2"
    },
    {
      "bufferView": 0,
      "componentType": 5125,
      "count": 182514,
      "type": "SCALAR"
    }
  ],
  "asset": {
    "extras": {
      "author": "ari20alfian (https://sketchfab.com/ari20alfian)",
      "license": "CC-BY-4.0 (http://creativecommons.org/licenses/by/4.0/)",
      "source": "https://sketchfab.com/3d-models/the-ape-506777b8d5b24fd691e2b3c6ceaffe6d",
      "title": "The Ape"
    },
    "generator": "Sketchfab-15.27.0",
    "version": "2.0"
  },
  "bufferViews": [
    {
      "buffer": 0,
      "byteLength": 730056,
      "name": "floatBufferViews",
      "target": 34963
    },
    {
      "buffer": 0,
      "byteLength": 780000,
      "byteOffset": 730056,
      "byteStride": 8,
      "name": "floatBufferViews",
      "target": 34962
    },
    {
      "buffer": 0,
      "byteLength": 780000,
      "byteOffset": 1510056,
      "byteStride": 12,
      "name": "floatBufferViews",
      "target": 34962
    }
  ],
  "buffers": [
    {
      "byteLength": 2290056,
      "uri": "scene.bin"
    }
  ],
  "extensionsRequired": [
    "KHR_materials_pbrSpecularGlossiness"
  ],
  "extensionsUsed": [
    "KHR_materials_pbrSpecularGlossiness"
  ],
  "images": [
    {
      "uri": "textures/material_diffuse.png"
    },
    {
      "uri": "textures/material_specularGlossiness.png"
    }
  ],
  "materials": [
    {
      "doubleSided": true,
      "extensions": {
        "KHR_materials_pbrSpecularGlossiness": {
          "diffuseFactor": [
            1.0,
            1.0,
            1.0,
            1.0
          ],
          "diffuseTexture": {
            "index": 0
          },
          "glossinessFactor": 1.0,
          "specularFactor": [
            1.0,
            1.0,
            1.0
          ],
          "specularGlossinessTexture": {
            "index": 1
          }
        }
      },
      "name": "material"
    }
  ],
  "meshes": [
    {
      "name": "Object_0",
      "primitives": [
        {
          "attributes": {
            "NORMAL": 1,
            "POSITION": 0,
            "TEXCOORD_0": 2,
            "TEXCOORD_1": 3,
            "TEXCOORD_2": 4
          },
          "indices": 5,
          "material": 0,
          "mode": 4
        }
      ]
    }
  ],
  "nodes": [
    {
      "children": [
        1
      ],
      "matrix": [
        1.0,
        0.0,
        0.0,
        0.0,
        0.0,
        2.220446049250313e-16,
        -1.0,
        0.0,
        0.0,
        1.0,
        2.220446049250313e-16,
        0.0,
        0.0,
        0.0,
        0.0,
        1.0
      ],
      "name": "Sketchfab_model"
    },
    {
      "children": [
        2
      ],
      "name": "root"
    },
    {
      "children": [
        3
      ],
      "matrix": [
        1.0,
        0.0,
        0.0,
        0.0,
        0.0,
        2.220446049250313e-16,
        1.0,
        0.0,
        0.0,
        -1.0,
        2.220446049250313e-16,
        0.0,
        0.0,
        0.0,
        0.0,
        1.0
      ],
      "name": "GLTF_SceneRootNode"
    },
    {
      "children": [
        4
      ],
      "name": "root_0"
    },
    {
      "children": [
        5
      ],
      "matrix": [
        0.044144220650196075,
        0.0,
        0.0,
        0.0,
        0.0,
        0.044144220650196075,
        0.0,
        0.0,
        0.0,
        0.0,
        0.044144220650196075,
        0.0,
        0.008611095137894154,
        -0.25610819458961487,
        0.21100781857967377,
        1.0
      ],
      "name": "node_id30_1"
    },
    {
      "mesh": 0,
      "name": "Object_5"
    }
  ],
  "samplers": [
    {
      "magFilter": 9729,
      "minFilter": 9987,
      "wrapS": 10497,
      "wrapT": 10497
    }
  ],
  "scene": 0,
  "scenes": [
    {
      "name": "Sketchfab_Scene",
      "nodes": [
        0
      ]
    }
  ],
  "textures": [
    {
      "sampler": 0,
      "source": 0
    },
    {
      "sampler": 0,
      "source": 1
    }
  ]
}
