{
  "accessors": [
    {
      "bufferView": 2,
      "componentType": 5126,
      "count": 3389,
      "max": [
        17.669506072998047,
        22.12877655029297,
        17.92551612854004
      ],
      "min": [
        -17.666017532348633,
        -18.564228057861328,
        -22.664052963256836
      ],
      "type": "VEC3"
    },
    {
      "bufferView": 2,
      "byteOffset": 40668,
      "componentType": 5126,
      "count": 3389,
      "max": [
        0.9997261166572571,
        0.9999223351478577,
        0.9996088743209839
      ],
      "min": [
        -0.9984672665596008,
        -0.9999862313270569,
        -0.9998761415481567
      ],
      "type": "VEC3"
    },
    {
      "bufferView": 3,
      "componentType": 5126,
      "count": 3389,
      "max": [
        0.9984064102172852,
        0.9999627470970154,
        0.9999970197677612,
        1.0
      ],
      "min": [
        -0.9984169602394104,
        -0.9976205825805664,
        -0.9999302625656128,
        1.0
      ],
      "type": "VEC4"
    },
    {
      "bufferView": 1,
      "componentType": 5126,
      "count": 3389,
      "max": [
        0.9881439805030823,
        0.9856849908828735
      ],
      "min": [
        0.009363999590277672,
        0.008841999806463718
      ],
      "type": "VEC2"
    },
    {
      "bufferView": 0,
      "componentType": 5125,
      "count": 19368,
      "type": "SCALAR"
    }
  ],
  "asset": {
    "extras": {
      "author": "Zhishangwonderful.You (https://sketchfab.com/Zhishangwonderful.You)",
      "license": "CC-BY-4.0 (http://creativecommons.org/licenses/by/4.0/)",
      "source": "https://sketchfab.com/3d-models/jade-toad-ce447e75bfcd480c89442cac1dabcb94",
      "title": "Jade Toad"
    },
    "generator": "Sketchfab-12.97.0",
    "version": "2.0"
  },
  "bufferViews": [
    {
      "buffer": 0,
      "byteLength": 77472,
      "name": "floatBufferViews",
      "target": 34963
    },
    {
      "buffer": 0,
      "byteLength": 27112,
      "byteOffset": 77472,
      "byteStride": 8,
      "name": "floatBufferViews",
      "target": 34962
    },
    {
      "buffer": 0,
      "byteLength": 81336,
      "byteOffset": 104584,
      "byteStride": 12,
      "name": "floatBufferViews",
      "target": 34962
    },
    {
      "buffer": 0,
      "byteLength": 54224,
      "byteOffset": 185920,
      "byteStride": 16,
      "name": "floatBufferViews",
      "target": 34962
    }
  ],
  "buffers": [
    {
      "byteLength": 240144,
      "uri": "scene.bin"
    }
  ],
  "images": [
    {
      "uri": "textures/Toad_Final_Low_Group28800SG1_baseColor.jpeg"
    },
    {
      "uri": "textures/Toad_Final_Low_Group28800SG1_metallicRoughness.png"
    },
    {
      "uri": "textures/Toad_Final_Low_Group28800SG1_normal.png"
    }
  ],
  "materials": [
    {
      "doubleSided": true,
      "name": "Toad_Final_Low_Group28800SG1",
      "normalTexture": {
        "index": 2
      },
      "occlusionTexture": {
        "index": 1
      },
      "pbrMetallicRoughness": {
        "baseColorTexture": {
          "index": 0
        },
        "metallicRoughnessTexture": {
          "index": 1
        }
      }
    }
  ],
  "meshes": [
    {
      "name": "Object_0",
      "primitives": [
        {
          "attributes": {
            "NORMAL": 1,
            "POSITION": 0,
            "TANGENT": 2,
            "TEXCOORD_0": 3
          },
          "indices": 4,
          "material": 0,
          "mode": 4
        }
      ]
    }
  ],
  "nodes": [
    {
      "children": [
        1
      ],
      "matrix": [
        1.0,
        0.0,
        0.0,
        0.0,
        0.0,
        2.220446049250313e-16,
        -1.0,
        0.0,
        0.0,
        1.0,
        2.220446049250313e-16,
        0.0,
        0.0,
        0.0,
        0.0,
        1.0
      ],
      "name": "Sketchfab_model"
    },
    {
      "children": [
        2
      ],
      "name": "JadeToad.obj.cleaner.materialmerger.gles"
    },
    {
      "mesh": 0,
      "name": "Object_2"
    }
  ],
  "samplers": [
    {
      "magFilter": 9729,
      "minFilter": 9987,
      "wrapS": 10497,
      "wrapT": 10497
    }
  ],
  "scene": 0,
  "scenes": [
    {
      "name": "Sketchfab_Scene",
      "nodes": [
        0
      ]
    }
  ],
  "textures": [
    {
      "sampler": 0,
      "source": 0
    },
    {
      "sampler": 0,
      "source": 1
    },
    {
      "sampler": 0,
      "source": 2
    }
  ]
}
