{
  "accessors": [
    {
      "bufferView": 2,
      "componentType": 5126,
      "count": 4493,
      "max": [
        1.3621289730072021,
        3.5887699127197266,
        1.3919509649276733
      ],
      "min": [
        -1.5695610046386719,
        0.0,
        -1.4089959859848022
      ],
      "type": "VEC3"
    },
    {
      "bufferView": 2,
      "byteOffset": 53916,
      "componentType": 5126,
      "count": 4493,
      "max": [
        0.9999528527259827,
        0.9978017807006836,
        0.9990991353988647
      ],
      "min": [
        -0.9999528527259827,
        -0.999572217464447,
        -0.9984304904937744
      ],
      "type": "VEC3"
    },
    {
      "bufferView": 1,
      "componentType": 5126,
      "count": 4493,
      "max": [
        3.22340989112854,
        108.77393341064453
      ],
      "min": [
        0.2234099954366684,
        0.9223999977111816
      ],
      "type": "VEC2"
    },
    {
      "bufferView": 0,
      "componentType": 5125,
      "count": 20262,
      "type": "SCALAR"
    },
    {
      "bufferView": 2,
      "byteOffset": 107832,
      "componentType": 5126,
      "count": 6972,
      "max": [
        1.7888920307159424,
        3.821959972381592,
        1.7033220529556274
      ],
      "min": [
        -1.8449180126190186,
        1.4947999715805054,
        -1.8419129848480225
      ],
      "type": "VEC3"
    },
    {
      "bufferView": 2,
      "byteOffset": 191496,
      "componentType": 5126,
      "count": 6972,
      "max": [
        0.9968652129173279,
        0.9999097585678101,
        0.9939680099487305
      ],
      "min": [
        -0.9999593496322632,
        -0.9999756217002869,
        -0.996404230594635
      ],
      "type": "VEC3"
    },
    {
      "bufferView": 3,
      "componentType": 5126,
      "count": 6972,
      "max": [
        0.9998953342437744,
        0.9996421933174133,
        0.9990144371986389,
        1.0
      ],
      "min": [
        -0.9995734691619873,
        -0.9998966455459595,
        -0.9993370175361633,
        -1.0
      ],
      "type": "VEC4"
    },
    {
      "bufferView": 1,
      "byteOffset": 35944,
      "componentType": 5126,
      "count": 6972,
      "max": [
        0.9989299774169922,
        1.0010700225830078
      ],
      "min": [
        -0.007439999841153622,
        -0.0006000000284984708
      ],
      "type": "VEC2"
    },
    {
      "bufferView": 1,
      "byteOffset": 91720,
      "componentType": 5126,
      "count": 6972,
      "max": [
        0.9989299774169922,
        1.0010700225830078
      ],
      "min": [
        -0.007439999841153622,
        -0.0006000000284984708
      ],
      "type": "VEC2"
    },
    {
      "bufferView": 1,
      "byteOffset": 147496,
      "componentType": 5126,
      "count": 6972,
      "max": [
        0.9989299774169922,
        1.0010700225830078
      ],
      "min": [
        -0.007439999841153622,
        -0.0006000000284984708
      ],
      "type": "VEC2"
    },
    {
      "bufferView": 1,
      "byteOffset": 203272,
      "componentType": 5126,
      "count": 6972,
      "max": [
        0.9989299774169922,
        1.0010700225830078
      ],
      "min": [
        -0.007439999841153622,
        -0.0006000000284984708
      ],
      "type": "VEC2"
    },
    {
      "bufferView": 0,
      "byteOffset": 81048,
      "componentType": 5125,
      "count": 20910,
      "type": "SCALAR"
    }
  ],
  "asset": {
    "extras": {
      "author": "kirsula228 (https://sketchfab.com/kirsula228)",
      "license": "CC-BY-4.0 (http://creativecommons.org/licenses/by/4.0/)",
      "source": "https://sketchfab.com/3d-models/jungle-tree-a9fabfb1742848aa802d7b3df3f34eb3",
      "title": "Jungle Tree"
    },
    "generator": "Sketchfab-16.56.0",
    "version": "2.0"
  },
  "bufferViews": [
    {
      "buffer": 0,
      "byteLength": 164688,
      "name": "floatBufferViews",
      "target": 34963
    },
    {
      "buffer": 0,
      "byteLength": 259048,
      "byteOffset": 164688,
      "byteStride": 8,
      "name": "floatBufferViews",
      "target": 34962
    },
    {
      "buffer": 0,
      "byteLength": 275160,
      "byteOffset": 423736,
      "byteStride": 12,
      "name": "floatBufferViews",
      "target": 34962
    },
    {
      "buffer": 0,
      "byteLength": 111552,
      "byteOffset": 698896,
      "byteStride": 16,
      "name": "floatBufferViews",
      "target": 34962
    }
  ],
  "buffers": [
    {
      "byteLength": 810448,
      "uri": "scene.bin"
    }
  ],
  "extensionsRequired": [
    "KHR_materials_pbrSpecularGlossiness"
  ],
  "extensionsUsed": [
    "KHR_materials_pbrSpecularGlossiness"
  ],
  "images": [
    {
      "uri": "textures/Trank_bark1_diffuse.jpeg"
    },
    {
      "uri": "textures/DB2X2_L02_diffuse.png"
    },
    {
      "uri": "textures/DB2X2_L02_specularGlossiness.png"
    },
    {
      "uri": "textures/DB2X2_L02_normal.png"
    }
  ],
  "materials": [
    {
      "doubleSided": true,
      "extensions": {
        "KHR_materials_pbrSpecularGlossiness": {
          "diffuseFactor": [
            1.0,
            1.0,
            1.0,
            1.0
          ],
          "diffuseTexture": {
            "index": 0
          },
          "glossinessFactor": 0.0,
          "specularFactor": [
            0.05,
            0.05,
            0.05
          ]
        }
      },
      "name": "Trank_bark1"
    },
    {
      "alphaMode": "BLEND",
      "doubleSided": true,
      "extensions": {
        "KHR_materials_pbrSpecularGlossiness": {
          "diffuseFactor": [
            1.0,
            1.0,
            1.0,
            1.0
          ],
          "diffuseTexture": {
            "index": 1
          },
          "glossinessFactor": 0.08379908085769242,
          "specularFactor": [
            0.05,
            0.05,
            0.05
          ],
          "specularGlossinessTexture": {
            "index": 2
          }
        }
      },
      "name": "DB2X2_L02",
      "normalTexture": {
        "index": 3
      }
    }
  ],
  "meshes": [
    {
      "name": "polySurface1_Trank_bark1_0",
      "primitives": [
        {
          "attributes": {
            "NORMAL": 1,
            "POSITION": 0,
            "TEXCOORD_0": 2
          },
          "indices": 3,
          "material": 0,
          "mode": 4
        }
      ]
    },
    {
      "name": "polySurface1_DB2X2_L02_0",
      "primitives": [
        {
          "attributes": {
            "NORMAL": 5,
            "POSITION": 4,
            "TANGENT": 6,
            "TEXCOORD_0": 7,
            "TEXCOORD_1": 8,
            "TEXCOORD_2": 9,
            "TEXCOORD_3": 10
          },
          "indices": 11,
          "material": 1,
          "mode": 4
        }
      ]
    }
  ],
  "nodes": [
    {
      "children": [
        1
      ],
      "matrix": [
        1.0,
        0.0,
        0.0,
        0.0,
        0.0,
        2.220446049250313e-16,
        -1.0,
        0.0,
        0.0,
        1.0,
        2.220446049250313e-16,
        0.0,
        0.0,
        0.0,
        0.0,
        1.0
      ],
      "name": "Sketchfab_model"
    },
    {
      "children": [
        2
      ],
      "matrix": [
        0.009999999776482582,
        0.0,
        0.0,
        0.0,
        0.0,
        0.0,
        0.009999999776482582,
        0.0,
        0.0,
        -0.009999999776482582,
        0.0,
        0.0,
        0.0,
        0.0,
        0.0,
        1.0
      ],
      "name": "Tree.fbx"
    },
    {
      "children": [
        3
      ],
      "name": "RootNode"
    },
    {
      "children": [
        4,
        5
      ],
      "name": "polySurface1"
    },
    {
      "mesh": 0,
      "name": "polySurface1_Trank_bark1_0"
    },
    {
      "mesh": 1,
      "name": "polySurface1_DB2X2_L02_0"
    }
  ],
  "samplers": [
    {
      "magFilter": 9729,
      "minFilter": 9987,
      "wrapS": 10497,
      "wrapT": 10497
    }
  ],
  "scene": 0,
  "scenes": [
    {
      "name": "Sketchfab_Scene",
      "nodes": [
        0
      ]
    }
  ],
  "textures": [
    {
      "sampler": 0,
      "source": 0
    },
    {
      "sampler": 0,
      "source": 1
    },
    {
      "sampler": 0,
      "source": 2
    },
    {
      "sampler": 0,
      "source": 3
    }
  ]
}
